<?xml version="1.0" encoding="utf-8"?>
<!DOCTYPE svg PUBLIC "-//W3C//DTD SVG 1.0//EN" "http://www.w3.org/TR/2001/REC-SVG-20010904/DTD/svg10.dtd">
<svg version="1.0" xmlns="http://www.w3.org/2000/svg" width="1530px" height="740px" viewBox="0 0 1530 740" preserveAspectRatio="xMidYMid meet">
 <g fill="#ffffff">
  <path d="M0 370 l0 -370 765 0 765 0 0 370 0 370 -765 0 -765 0 0 -370z m580.75 222.30 c3.50 -0.90 5.55 -2.05 8.25 -4.60 4.80 -4.50 6.80 -12.55 4.10 -16.70 -0.60 -0.95 -1.40 -2.35 -1.70 -3.10 -0.35 -0.80 -0.80 -1.40 -1 -1.40 -0.20 0 -1.45 -0.65 -2.80 -1.45 -1.40 -0.80 -5.70 -2.65 -9.65 -4.10 -6.30 -2.30 -7.50 -2.90 -9.55 -4.95 l-2.40 -2.35 0 -3.80 c0 -5.65 1.15 -7.85 5.25 -10 1.65 -0.85 2.95 -1.05 7.30 -1.05 5.15 -0.05 5.40 0 8.90 1.80 3.45 1.75 3.60 1.80 4.10 0.80 0.70 -1.30 -0.05 -2.15 -3.50 -3.85 -5.95 -3 -11.50 -3.25 -16.95 -0.80 -6.85 3.05 -11 10.60 -9.10 16.55 1.70 5.40 5.30 8.15 14.95 11.55 10.45 3.60 12.50 5.35 12.90 11 0.35 4.35 -0.40 6.90 -2.60 9.50 -2.50 2.95 -5.30 3.90 -11.50 3.90 -4.45 0 -5.35 -0.15 -8 -1.40 -1.60 -0.75 -3.70 -1.95 -4.55 -2.60 l-1.65 -1.25 -0.75 1.10 c-0.75 1 -0.70 1.20 0.35 2.30 0.60 0.65 2.40 1.85 4 2.65 5.50 2.80 10.70 3.55 15.60 2.25z m46.40 -0.10 c4.90 -1.25 9.75 -4.10 8.45 -4.90 -0.30 -0.15 -1.80 0.30 -3.40 1.05 -2.45 1.10 -3.85 1.40 -7.95 1.55 -6.70 0.25 -8.90 -0.35 -11.85 -3.40 -2.75 -2.85 -4.40 -7.35 -4.40 -12.05 l0 -2.95 14.15 0 c16.90 0 16.30 0.20 15.40 -4.55 -2.05 -10.25 -10.80 -16.35 -19.85 -13.70 -5.60 1.60 -9.50 5 -11.95 10.40 -4.25 9.30 -0.70 21.80 7.60 26.70 4.40 2.55 8.80 3.15 13.80 1.85z m44 0 c4.90 -1.25 9.75 -4.10 8.45 -4.90 -0.30 -0.15 -1.80 0.30 -3.40 1.05 -2.45 1.10 -3.85 1.40 -7.95 1.55 -6.70 0.25 -8.90 -0.35 -11.85 -3.40 -2.75 -2.85 -4.40 -7.35 -4.40 -12.05 l0 -2.95 14.15 0 c16.90 0 16.30 0.20 15.40 -4.55 -2.05 -10.25 -10.80 -16.35 -19.85 -13.70 -5.60 1.60 -9.50 5 -11.95 10.40 -4.25 9.30 -0.70 21.80 7.60 26.70 4.40 2.55 8.80 3.15 13.80 1.85z m56.15 -0.75 c2.10 -1.25 2.35 -2.70 0.40 -1.95 -0.70 0.30 -2.60 0.50 -4.20 0.50 -2.40 0 -3.20 -0.25 -4.35 -1.20 l-1.40 -1.20 -0.15 -15.55 -0.15 -15.55 6.05 0 6 0 0 -1.25 0 -1.25 -6 0 -6 0 0 -7.30 c0 -7.25 0 -7.25 -1.10 -7.10 -1.05 0.15 -1.20 0.60 -2.15 7.15 l-1 7 -3.25 0.45 c-1.80 0.25 -3.35 0.50 -3.45 0.60 -0.10 0.10 0.10 0.50 0.45 0.95 0.40 0.50 1.50 0.75 3.25 0.75 l2.65 0 0.20 14.90 c0.15 14.75 0.15 14.85 1.40 16.95 2.60 4.40 8.45 5.80 12.80 3.10z m83.45 0.35 c3.20 -1 7.50 -3.75 6.85 -4.40 -0.35 -0.35 -1.55 -0.05 -3.45 0.90 -2.50 1.20 -3.70 1.40 -8.45 1.60 -5.20 0.20 -5.80 0.15 -8.35 -1.05 -4.75 -2.15 -7.35 -7.05 -7.35 -13.95 l0 -3.40 13.90 0 c16.25 0 15.95 0.10 15.45 -3.95 -0.85 -7.05 -5.70 -12.70 -12.50 -14.55 -6.40 -1.75 -14.95 2.45 -18.55 9 -2.80 5.15 -3.45 10.15 -2 15.65 1.45 5.75 3.85 9.35 7.95 12.10 4.90 3.20 10.35 3.90 16.50 2.05z m101.35 0.20 c1.45 -0.55 3.35 -1.55 4.15 -2.25 l1.50 -1.25 -1.95 0.80 c-1.45 0.60 -3.25 0.75 -6.60 0.60 -5.15 -0.15 -6.65 -0.85 -8.45 -3.95 -0.95 -1.55 -1 -2.85 -1.25 -17.20 l-0.25 -15.50 -2.10 -0.15 -2.15 -0.15 0 13.95 c0 15.35 0.25 17.25 3 21 3.35 4.65 8.60 6.15 14.10 4.10z m46.95 -0.60 c1.80 -1 2.45 -2.45 0.90 -1.90 -0.40 0.10 -2.35 0.30 -4.30 0.40 -3.35 0.15 -3.70 0.10 -4.80 -1.10 -1.65 -1.80 -1.85 -3.80 -1.85 -19.10 l0 -13.15 6.15 -0.15 c5.85 -0.15 6.10 -0.20 6.25 -1.25 0.15 -1.10 0.05 -1.10 -6 -1.25 l-6.15 -0.15 -0.15 -7.10 c-0.10 -5.95 -0.25 -7.15 -0.85 -7.15 -1.10 0 -1.65 1.60 -2.25 6.75 -1 8.25 -0.65 7.60 -4.30 8 -2.15 0.20 -3.20 0.55 -3.20 1 0 0.90 1.15 1.25 4.05 1.25 l2.45 0 0 14.15 c0 8.25 0.20 14.90 0.55 16 0.60 2.25 3.35 5.15 5.60 5.80 2.25 0.70 5.60 0.25 7.90 -1.05z m30.25 0.75 c2.20 -0.75 6.20 -3 6.20 -3.45 0 -0.15 -0.80 0.15 -1.80 0.55 -1.15 0.45 -3.40 0.75 -6.15 0.75 -5.30 0 -7.25 -0.90 -9.05 -4.05 -1.25 -2.20 -1.25 -2.25 -1.40 -17.55 l-0.20 -15.40 -2.20 0 -2.20 0 0 12.40 c0 6.80 0.25 13.80 0.55 15.60 0.65 4.15 2.50 7.50 5.15 9.40 3.80 2.70 6.85 3.20 11.10 1.75z m85.35 0.05 c4.90 -1.25 9.75 -4.10 8.45 -4.90 -0.30 -0.15 -1.80 0.30 -3.40 1.05 -2.50 1.15 -3.80 1.40 -8.35 1.55 -6.65 0.25 -8.95 -0.45 -11.80 -3.70 -2.45 -2.80 -3.55 -5.80 -3.90 -10.80 l-0.30 -3.85 14.55 -0.15 c10.40 -0.10 14.70 -0.30 15.15 -0.75 0.80 -0.80 -0.25 -6.05 -1.85 -9.25 -2.40 -4.70 -7.25 -8.10 -12.60 -8.75 -4.70 -0.55 -11.75 2.60 -14.85 6.65 -4.75 6.25 -5.70 15.25 -2.30 22.45 2.50 5.40 6 8.55 11.45 10.30 3.55 1.10 5.90 1.15 9.75 0.15z m59.60 0.05 c3.45 -0.90 7.60 -3.55 9.50 -6.05 3.50 -4.60 5.20 -11.20 4.25 -16.70 -1.20 -7.05 -4.90 -12.30 -10.60 -15 -5.35 -2.55 -10.50 -2.45 -15.90 0.25 -7.10 3.55 -11.40 12.80 -10 21.25 1.15 6.75 4.75 12.10 10 14.75 4.55 2.30 8 2.70 12.75 1.50z m166.55 -0.05 c3.85 -1.30 3.70 -1.70 -0.60 -1.40 -7.10 0.50 -9.75 -1.30 -10.10 -7 -0.25 -4 0.65 -5.90 3.55 -7.35 3.30 -1.70 6.65 -2.45 12.75 -2.80 l5.60 -0.30 0 5.90 c0 4.80 -0.15 6.10 -0.85 6.85 -0.75 0.85 -0.75 0.90 0.25 0.90 0.80 0 1.15 0.40 1.35 1.40 0.50 2.30 1.50 3.85 2.50 3.85 0.95 0 1 -0.45 1.15 -11 0.20 -17.60 -0.85 -22.45 -5.80 -25.95 -3.95 -2.80 -7.45 -3.40 -12.35 -2.10 -4.40 1.15 -9.75 4.50 -8.80 5.45 0.35 0.35 1.75 -0.10 4.20 -1.35 3.65 -1.85 3.80 -1.90 8.50 -1.75 7.55 0.30 9.20 2.10 9.70 10.60 0.35 5.95 0.45 5.80 -4.60 5.85 -3.50 0.05 -10.70 1.70 -14 3.25 -4.80 2.30 -7.80 6.40 -7 9.65 1.55 6.15 8.05 9.45 14.55 7.30z m46.65 -0.75 c3.15 -1.35 4.50 -2.65 1.95 -1.95 -2.15 0.65 -7.65 0.65 -9.90 0 -2.20 -0.60 -4.65 -3.05 -5.75 -5.70 -1.25 -2.90 -1.85 -10.15 -1.25 -15.10 1.05 -9.55 4.70 -13.35 13 -13.40 2.35 -0.05 4.90 0.15 5.65 0.35 2 0.55 1.30 -0.40 -1.25 -1.70 -4.95 -2.55 -10.70 -1.40 -15.65 3.10 -10.35 9.50 -7.95 30.80 4 35.20 2.50 0.90 5.90 0.65 9.20 -0.80z m50.70 0.75 c4.90 -1.25 9.75 -4.10 8.45 -4.90 -0.30 -0.15 -1.80 0.30 -3.40 1.05 -2.45 1.10 -3.85 1.40 -7.95 1.55 -6.70 0.25 -8.90 -0.35 -11.85 -3.40 -2.75 -2.85 -4.40 -7.35 -4.40 -12.05 l0 -2.95 14.15 0 c16.90 0 16.30 0.20 15.40 -4.55 -2 -10.20 -10.40 -16.10 -19.50 -13.75 -8.50 2.20 -14.15 9.75 -14.15 18.90 0 9.80 5.60 17.85 14 20.15 3.25 0.90 5.65 0.90 9.25 -0.05z m-651.65 -15.30 l0 -15.60 1.35 -1.40 1.35 -1.40 -1.35 0 -1.35 0 0 -12.25 0 -12.25 -2.25 0 -2.25 0 0 29.25 0 29.25 2.25 0 2.25 0 0 -15.60z m27.40 0.75 l-0.15 -14.90 -1.40 -2.85 c-1.70 -3.45 -4.20 -5.65 -7.75 -6.75 -2.50 -0.80 -2.90 -0.80 -5.90 0 -2.55 0.65 -7.20 3 -7.20 3.65 0 0.05 1.05 -0.20 2.30 -0.65 1.60 -0.55 3.50 -0.70 6.50 -0.55 4.95 0.25 6.35 1.05 8.10 4.40 1.05 2.15 1.10 2.65 1.10 17 0 8.15 0.15 15 0.35 15.15 0.15 0.20 1.20 0.35 2.25 0.35 l1.95 0 -0.15 -14.85z m80.70 2 l0.15 -12.90 12.40 -0.15 12.40 -0.10 -0.15 -1.65 -0.15 -1.60 -12.40 -0.15 -12.35 -0.10 0.10 -11.90 0.15 -11.85 14.40 -0.15 14.35 -0.10 0 -1.75 0 -1.75 -17 0 -17 0 0 28.50 0 28.50 2.50 0 2.50 0 0.10 -12.85z m72.40 -6.95 l0 -19.75 -2.10 0.15 -2.15 0.15 -0.05 15.70 0 15.70 -1.15 0.90 -1.15 0.95 1.25 0 c1.35 0 1.85 0.80 1.85 3 0 1.65 1.15 3 2.55 3 0.90 0 0.95 -0.60 0.95 -19.80z m78 0.05 l0 -19.75 -2.25 0 -2.25 0 0 15.60 c0 15.30 0 15.60 -1.10 16.75 l-1.05 1.15 1.25 0 c1.15 0 1.30 0.25 1.60 2.30 0.35 2.80 1 3.70 2.60 3.70 l1.20 0 0 -19.75z m20 5.90 c0 -13 0.05 -14 1 -15.55 1.25 -2.05 1.25 -2.10 -0.20 -2.10 -1.25 0 -1.80 -1.40 -1.80 -4.80 0 -1.85 -1.10 -3.20 -2.55 -3.20 -0.90 0 -0.95 0.60 -0.95 19.75 l0 19.75 2.25 0 2.25 0 0 -13.85z m141.90 -4.25 l0.10 -17.85 5.90 -0.15 c5.65 -0.15 5.85 -0.20 6 -1.25 0.15 -1.15 0.10 -1.15 -6.20 -1.15 l-6.35 0 0.25 -5.60 c0.20 -4.35 0.45 -6 1.20 -7.25 1.35 -2.30 4.05 -3.65 7.35 -3.65 1.85 0 2.95 -0.25 3.35 -0.75 1.05 -1.25 -0.10 -1.90 -3.15 -1.85 -4.85 0.05 -8.75 2.35 -11.10 6.65 -1.20 2.25 -1.50 3.45 -1.70 7.45 l-0.30 4.75 -3.50 0.25 c-3.45 0.25 -3.50 0.25 -2.25 1.05 0.70 0.45 2.30 1 3.65 1.20 l2.35 0.30 0 18 0 18 2.15 -0.15 2.10 -0.15 0.15 -17.85z m57.80 16.55 c0.15 -0.85 0.30 -12.80 0.30 -26.50 l0 -24.95 9.50 0 9.50 0 0 -2 0 -2 -22.05 0 -22 0 0.15 1.90 0.15 1.85 9.65 0.15 9.60 0.10 0 26.50 0 26.50 2.45 0 c2.30 0 2.45 -0.05 2.75 -1.55z m34.30 -12.30 c0 -13 0.05 -14 1 -15.55 1.25 -2.05 1.25 -2.10 -0.20 -2.10 -1.25 0 -1.80 -1.40 -1.80 -4.80 0 -1.85 -1.10 -3.20 -2.55 -3.20 -0.90 0 -0.95 0.60 -0.95 19.75 l0 19.75 2.25 0 2.25 0 0 -13.85z m103 -15.40 l0 -29.25 -2.25 0 -2.25 0 0 11.50 0 11.50 -1.55 0 -1.55 0 1.55 1.60 1.55 1.60 0 11.75 c0 11.35 -0.05 11.75 -1.10 12.90 l-1.05 1.15 1.25 0 c1.15 0 1.30 0.25 1.55 2.55 0.35 3 1 3.95 2.65 3.95 l1.20 0 0 -29.25z m-330.70 -5.60 c0.95 -0.60 2.50 -0.85 5.85 -0.85 2.55 -0.05 4.75 -0.25 4.95 -0.55 0.85 -1.15 0.40 -2.80 -0.95 -3.30 -2.90 -1.10 -7.10 0.55 -10.35 4 -1.65 1.70 -1.45 2 0.50 0.70z m234 0 c0.95 -0.60 2.50 -0.85 5.85 -0.85 2.55 -0.05 4.75 -0.25 4.95 -0.55 0.90 -1.15 0.40 -2.65 -1.10 -3.25 -2.80 -1.15 -6.90 0.45 -10.20 3.95 -1.65 1.70 -1.45 2 0.50 0.70z m-627.30 -84.65 c5.10 -1.95 11.15 -4.30 13.50 -5.20 8.75 -3.50 13.80 -5.30 15.50 -5.60 0.95 -0.15 2.10 -0.40 2.50 -0.60 0.40 -0.15 2 -0.55 3.50 -0.85 2.70 -0.60 5.10 -1.20 17.50 -4.30 3.45 -0.85 7.60 -1.85 9.25 -2.20 3.45 -0.80 7.20 -1.70 13.50 -3.20 2.50 -0.60 5.15 -1.25 5.95 -1.45 2.35 -0.60 2.10 -1.45 -0.55 -1.75 -1.30 -0.15 -3.90 -0.55 -5.75 -0.85 -3.40 -0.60 -3.40 -0.60 -3.40 -2.25 l0 -1.65 3.65 -0.55 c6.45 -1 13.60 -3.40 15.10 -5.05 0.60 -0.65 1.55 -1 2.75 -1 2.05 0 2.30 0.30 4.30 5.50 0.45 1.25 1.90 3.95 3.15 6 7.10 11.70 17.50 18.25 33.45 21 9.55 1.65 17.50 1 22.60 -1.90 7.75 -4.45 18.80 -13 25.30 -19.70 6.05 -6.15 7.20 -7.65 7.20 -9.25 0 -0.65 0.95 -3.15 2.05 -5.55 1.15 -2.40 2.70 -5.70 3.45 -7.35 3.50 -7.40 7.10 -16.40 9.95 -24.75 0.35 -0.95 0.70 -3.45 0.80 -5.50 0.10 -2.05 0.10 -3.35 -0.05 -2.85 -0.30 0.85 -1.95 1.10 -4 0.55 -0.90 -0.25 -1.15 -1 -1.90 -5.85 -0.45 -3.10 -1.05 -6.95 -1.35 -8.60 -0.85 -5.10 -1.55 -11.30 -1.80 -16.10 l-0.20 -4.60 1.75 -0.15 1.80 -0.15 -2 -3 c-1.55 -2.30 -2 -3.50 -2 -5.10 0 -2.65 -1.15 -3.60 -8.60 -7.10 -11.30 -5.25 -23.25 -7.15 -32.50 -5.10 -1.15 0.25 -3.95 0.85 -6.15 1.30 -6.15 1.25 -10.25 2.35 -10.55 2.85 -0.15 0.20 0.20 0.40 0.75 0.40 0.85 0 1.05 0.30 1.05 1.65 0 1.35 -0.60 2.20 -3.55 5.10 -12.60 12.40 -26.05 29.15 -32.30 40.30 -0.80 1.35 -1.70 2.45 -2 2.45 -0.35 0 -0.65 0.55 -0.65 1.25 0 0.65 -0.40 2 -0.85 3 -0.75 1.55 -1.05 1.75 -2.75 1.75 -1.85 0 -1.90 -0.05 -1.90 -1.70 0 -0.95 0.25 -1.80 0.60 -1.90 0.30 -0.10 0.45 -0.50 0.30 -0.90 -0.20 -0.65 -3.90 6.40 -5.45 10.35 -1.95 5 -2.75 14.20 -1.50 16.60 0.30 0.55 0.55 3.10 0.55 5.65 0 3.85 0.20 4.85 1 5.90 0.55 0.70 1 2 1 2.95 l0 1.65 -3.85 -0.30 c-10.35 -0.85 -13.60 -0.90 -17.10 -0.10 -4 0.90 -6.85 1.05 -7.30 0.30 -0.60 -0.95 -9.50 -0.20 -12.50 1 -0.55 0.25 -1.90 0.55 -3 0.70 -1.10 0.10 -3.55 0.60 -5.50 1.05 -12.05 2.75 -14.25 3.10 -15.65 2.45 -0.45 -0.20 -1.05 -0.30 -1.35 -0.20 -2.95 0.80 -6.25 1.45 -7.35 1.50 -0.80 0 -1.40 0.20 -1.40 0.40 0 0.55 -4.15 1.60 -6.25 1.60 -1.65 0 -1.75 -0.10 -1.75 -1.65 0 -1.45 0.25 -1.80 2.15 -2.70 l2.10 -1.05 -2.35 0.25 -2.40 0.30 0 -3.45 c0 -1.90 0.20 -5.25 0.50 -7.45 0.50 -4.15 1.15 -11.70 1.95 -23.25 0.30 -3.70 0.75 -8.90 1.05 -11.50 1.30 -11.75 2 -19.75 2 -22.75 0 -1.80 0.20 -4.20 0.50 -5.35 0.25 -1.20 0.70 -5.65 1 -9.90 0.35 -4.25 0.70 -8.70 0.85 -9.85 0.30 -2.50 -0.40 -2.80 -2.50 -1.15 -0.95 0.75 -2 1 -4.25 1 -3.40 0 -3.60 -0.20 -3.60 -4 0 -3.10 -0.65 -4.75 -2.20 -5.75 -1.20 -0.80 -1.35 -0.80 -2.15 0.05 -0.50 0.45 -1.25 1.90 -1.65 3.15 -0.45 1.40 -1.15 2.50 -1.85 2.80 -1.15 0.50 -1.65 2.10 -1.65 5.65 0 1.25 -0.20 4.20 -0.45 6.55 -1 9.10 -2.05 22.85 -3.05 39.80 -0.25 4.95 -0.75 9.95 -1 11.10 -0.30 1.15 -0.50 4.20 -0.50 6.70 0 2.55 -0.25 6.50 -0.60 8.80 l-0.60 4.15 -2.15 0 -2.15 0 0 -1.90 c0 -1 0.25 -2.65 0.50 -3.60 0.40 -1.25 0.35 -2.05 -0.10 -2.90 -0.65 -1.25 -0.20 -5.60 1.55 -15.60 0.60 -3.15 1.05 -6.05 1.05 -6.35 0 -1.05 -2.50 -0.80 -2.55 0.25 0 0.45 -0.25 3 -0.50 5.60 -0.20 2.60 -0.65 8.15 -0.90 12.25 -0.30 4.15 -0.65 8.05 -0.80 8.75 -0.15 0.70 -0.50 3.85 -0.75 7 -0.30 3.15 -0.80 9.25 -1.20 13.50 l-0.65 7.75 2.40 3.20 c2.45 3.20 2.45 3.30 2.45 7.05 l0 3.75 -2.10 0.65 c-2.05 0.65 -4.40 2.35 -4.40 3.15 0 0.20 0.40 0.50 0.90 0.65 0.50 0.15 1.80 1.50 2.85 2.90 3.45 4.55 4.80 5.90 5.95 5.90 0.60 0 5.25 -1.60 10.30 -3.50z m-191.50 -1.30 c4 -0.45 9.85 -1.25 13 -1.75 3.15 -0.55 6.60 -1.15 7.65 -1.30 l1.90 -0.30 -0.20 -151.30 c-0.15 -136.80 -0.25 -151.75 -1 -155.85 -1.90 -10.65 -5.60 -17.50 -12.45 -23.05 -1.60 -1.30 -7.95 -4.55 -10.15 -5.25 -4.50 -1.35 -7.15 -1.90 -13.25 -2.60 -12.25 -1.45 -25.50 -0.90 -43.50 1.75 -11 1.60 -12.80 1.90 -13.70 2.25 -0.75 0.30 -0.80 5.45 -0.80 65.65 l0 65.30 -55.15 0 -55.10 0 -0.30 -50 c-0.25 -44.40 -0.35 -50.50 -1.10 -54.35 -1.20 -6 -2.55 -10 -4.65 -13.75 -1.90 -3.45 -7.35 -9.30 -9.10 -9.85 -0.60 -0.20 -1.10 -0.55 -1.10 -0.75 0 -0.55 -6 -3.20 -9.50 -4.25 -6.40 -1.90 -12.85 -2.55 -25.75 -2.50 -13.50 0 -22.50 0.90 -41.35 4.10 l-2.15 0.40 0 149.95 c0 157.45 -0.05 153.45 2.10 162.25 1.60 6.35 6.15 14 9.90 16.60 0.95 0.60 1.75 1.30 1.75 1.45 0 0.20 0.65 0.60 1.45 0.95 0.80 0.30 1.60 0.90 1.75 1.25 0.10 0.35 0.90 0.80 1.75 1 0.85 0.15 2.40 0.75 3.45 1.25 2.55 1.25 10.35 2.80 17.85 3.55 9 0.90 29.35 0 40.25 -1.75 0.95 -0.15 3.90 -0.60 6.50 -1.05 2.60 -0.40 5.45 -0.95 6.25 -1.15 l1.50 -0.40 0.15 -64.35 0.10 -64.35 55.20 0 55.25 0 0.20 48.90 c0.20 51.35 0.25 51.65 2.50 59.45 3.85 13.35 14.40 21.50 30.80 23.90 11.70 1.70 23.25 1.70 39.05 -0.05z m110.25 -2.55 c3.40 -0.70 4.80 -1.35 9.50 -4.40 7.70 -4.95 14.65 -10.50 20.30 -16.05 2.65 -2.55 5.10 -4.70 5.50 -4.70 1.10 0 1.95 -1.05 1.95 -2.30 0 -0.65 0.25 -1.30 0.50 -1.45 0.30 -0.15 0.50 -0.90 0.50 -1.65 0 -0.75 1.85 -5.40 4.20 -10.35 6.30 -13.55 6.50 -14 9.15 -21.50 2.45 -6.85 4 -13.60 3.55 -15.55 -0.15 -0.50 -0.40 0.15 -0.60 1.55 -0.70 4.80 -0.65 4.75 -2.50 4.75 -2.10 0 -2.15 -0.15 -3.05 -7.50 -0.40 -3.15 -1.05 -8 -1.50 -10.75 -1 -6.20 -1.80 -12.80 -2.10 -17.85 l-0.25 -3.90 1.80 0 c1 0 1.80 -0.15 1.80 -0.30 0 -0.15 -0.55 -1 -1.20 -1.85 -2 -2.65 -2.90 -4.85 -2.70 -6.65 0.10 -1.50 -0.10 -1.85 -1.80 -3 -3.40 -2.30 -11.95 -6.05 -16.30 -7.20 -2.35 -0.55 -5.25 -1.30 -6.50 -1.65 -4.25 -1.10 -13 -0.70 -21.25 1.05 -8.50 1.80 -13.20 3.25 -11.35 3.50 0.90 0.15 1.10 0.50 1.10 1.75 -0.05 1.35 -0.95 2.55 -5.85 7.60 -8.85 9.10 -20.10 22.45 -23.05 27.35 -0.65 1 -1.90 2.50 -2.80 3.30 -0.90 0.80 -1.80 2.10 -2 2.85 -0.65 2.65 -2.20 4.25 -4.05 4.25 -1.45 0 -1.70 -0.20 -1.85 -1.35 -0.15 -1.30 -0.15 -1.30 -1 0.50 l-0.90 1.85 2 0 c1.90 0 2 0.10 2 1.50 0 0.80 -0.40 2.25 -0.85 3.20 -0.80 1.55 -1.15 1.80 -2.75 1.80 -1.80 0 -1.90 -0.10 -1.90 -1.55 0 -0.85 0.25 -1.95 0.55 -2.55 0.30 -0.55 0.45 -1.10 0.30 -1.20 -0.20 -0.25 -5.50 10.10 -6.70 13.05 -1.05 2.60 -2 9.40 -1.55 11 0.25 0.85 0.55 4.45 0.70 8 l0.30 6.50 2.55 3.70 c1.40 2.05 3.45 5.90 4.60 8.50 3 6.85 6 11.25 10.65 15.60 3.80 3.50 12.40 8.95 14.20 8.95 0.35 0 2 0.45 3.65 1.05 7.70 2.70 18.05 3.55 25 2.10z m403.50 -2.20 c13.95 -1.15 30.30 -4.25 40.15 -7.60 l3.10 -1.05 0 -11.70 0 -11.75 -3.35 0.30 c-1.90 0.20 -7.40 0.50 -12.30 0.65 -7.40 0.30 -9 0.25 -9.40 -0.35 -0.25 -0.40 -0.50 -6.30 -0.55 -13.20 -0.05 -6.85 -0.15 -11.50 -0.20 -10.25 -0.10 1.25 -0.45 7.10 -0.75 13.05 l-0.60 10.80 -10.55 0.30 c-15.80 0.45 -27.15 -0.45 -34.55 -2.70 -1.90 -0.55 -4 -1.15 -4.60 -1.30 -0.65 -0.15 -1.15 -0.45 -1.15 -0.70 0 -0.25 -0.30 -0.45 -0.65 -0.45 -0.90 0 -4.85 -1.95 -5.75 -2.80 -0.35 -0.40 -0.85 -0.70 -1.10 -0.70 -0.25 0 -0.75 -0.30 -1.10 -0.65 -0.35 -0.35 -1.75 -1.45 -3.05 -2.45 -6.55 -4.95 -13 -16.30 -16.40 -28.65 -3.55 -13.05 -4.60 -22.90 -4.60 -42.75 0.05 -15.30 0.30 -19.45 2.10 -31 0.85 -5.45 4.55 -18.15 5.60 -19.25 0.25 -0.25 0.45 -0.85 0.45 -1.35 0 -0.50 0.25 -0.90 0.50 -0.90 0.30 0 0.50 -0.45 0.50 -1 0 -0.55 0.25 -1 0.50 -1 0.30 0 0.50 -0.20 0.50 -0.50 0 -1.05 4.20 -6.95 7.05 -9.90 8.10 -8.30 19 -12.95 33.20 -14.10 11.05 -0.90 32.80 -0.55 53.65 0.80 l5.10 0.35 0 -11.55 0 -11.55 -1.55 -0.80 c-3.80 -2 -14 -4.70 -24.20 -6.45 -9 -1.50 -15.45 -2.20 -25.50 -2.70 -15.25 -0.75 -32.90 2.15 -42.30 6.90 -1.05 0.55 -2.10 1 -2.35 1 -0.90 0 -11.40 6.55 -13.65 8.50 -1.30 1.10 -3.10 2.65 -4.10 3.40 -2.50 2 -5.85 5.45 -7.85 8.10 -0.95 1.25 -2 2.55 -2.35 2.90 -0.30 0.30 -0.75 1.05 -0.90 1.60 -0.15 0.55 -0.50 1 -0.70 1 -0.25 0 -0.70 0.70 -1.05 1.50 -0.35 0.85 -0.80 1.50 -0.95 1.50 -0.75 0 -7.55 14.90 -9.50 20.75 -7.35 21.85 -9.60 47.70 -6.75 77.75 2.90 30.95 12 54.40 26.70 69 5.25 5.20 7.90 7.40 10.40 8.70 0.85 0.45 1.60 1 1.60 1.20 0 0.20 1 0.80 2.25 1.35 1.25 0.55 2.25 1.10 2.25 1.25 0 0.15 0.75 0.55 1.65 0.90 0.85 0.35 3.05 1.30 4.85 2.15 3.85 1.75 13.05 4.15 19 5 9.85 1.35 19.90 1.50 33.25 0.40z m102.50 -5.55 c0.70 -2.30 2.55 -8.50 10.25 -34.40 0.75 -2.60 2.60 -8.80 4.10 -13.75 l2.65 -9 39.35 -0.15 39.30 -0.10 1.10 3.60 c0.60 2 1.85 6 2.75 8.90 0.95 2.90 2.60 8.30 3.75 12 1.15 3.70 2.30 7.30 2.50 8 0.20 0.70 1.35 4.25 2.45 7.90 1.15 3.60 3 9.55 4.10 13.10 l2.05 6.50 18.45 0 c10.15 0 18.45 -0.10 18.45 -0.25 0 -0.15 -2.10 -6.60 -4.70 -14.35 -2.55 -7.80 -5.85 -17.85 -7.30 -22.40 -1.45 -4.55 -5.50 -16.90 -9 -27.50 -3.50 -10.60 -7.55 -22.95 -9 -27.50 -1.45 -4.55 -5.50 -16.90 -9 -27.50 -3.50 -10.60 -7.55 -22.95 -9 -27.50 -1.45 -4.55 -5.50 -16.90 -9 -27.50 -3.50 -10.60 -7.55 -22.95 -9 -27.50 -1.45 -4.55 -3.20 -10.05 -3.95 -12.25 l-1.30 -4 -23.25 -0.15 -23.25 -0.10 -5.65 17.35 c-3.15 9.60 -8.35 25.60 -11.60 35.65 -11.75 36.25 -18.55 57.10 -24.50 75.50 -13.45 41.50 -18.80 57.95 -23.80 73.25 -2.85 8.80 -5.20 16.15 -5.20 16.40 0 0.20 8.20 0.35 18.25 0.35 l18.20 0 0.80 -2.60z m219.75 -90.90 l0 -93.50 2 0 c1.45 0 2 0.20 2 0.75 0 0.40 0.65 2.15 1.45 3.85 0.80 1.75 2 4.50 2.70 6.15 1.55 3.65 4.25 9.90 6.95 16 1.10 2.50 2.65 6.10 3.50 8 0.85 1.95 2.25 5.20 3.20 7.25 0.90 2.05 2.55 5.90 3.70 8.50 1.15 2.60 2.70 6.20 3.50 8 0.80 1.80 2.35 5.40 3.50 8 1.15 2.60 2.80 6.45 3.70 8.50 0.95 2.05 2.35 5.35 3.20 7.25 0.85 1.95 2.40 5.55 3.50 8 1.10 2.50 2.80 6.35 3.80 8.65 1 2.25 2.60 5.95 3.60 8.25 1 2.25 2.70 6.15 3.80 8.60 1.10 2.50 2.65 6.10 3.50 8 0.85 1.95 2.25 5.20 3.20 7.25 0.90 2.05 2.55 5.90 3.70 8.50 1.15 2.60 2.70 6.20 3.50 8 0.80 1.80 2.35 5.40 3.50 8 1.15 2.60 2.80 6.45 3.75 8.50 0.90 2.05 2.45 5.60 3.45 7.90 1 2.25 2.55 5.85 3.50 8 0.95 2.10 2 4.60 2.30 5.50 l0.60 1.60 28.70 0 28.70 0 0 -6.85 c0.05 -3.80 0.10 -8.80 0.15 -11.15 0.05 -2.35 0 -48.40 -0.05 -102.35 l-0.10 -98.15 -16.80 0 -16.75 0 0.10 93.40 0.05 93.35 -1.65 0.15 c-1.70 0.15 -1.70 0.10 -3.65 -4.25 -2.10 -4.85 -4.75 -10.95 -6.55 -15.15 -1.55 -3.55 -4.90 -11.30 -6.85 -15.75 -0.85 -1.90 -2.15 -4.95 -2.90 -6.75 -1.40 -3.30 -3 -7 -6.25 -14.50 -1 -2.35 -2.35 -5.50 -3 -7 -1.30 -2.95 -4.40 -10.20 -6.80 -15.60 -0.80 -1.90 -2.10 -4.90 -2.90 -6.75 -2.10 -5 -4.35 -10.20 -6.05 -14 -0.80 -1.90 -2.25 -5.25 -3.25 -7.50 -0.95 -2.30 -2.55 -6 -3.50 -8.25 -1 -2.30 -2.45 -5.65 -3.25 -7.50 -0.85 -1.90 -2.15 -4.95 -3 -6.90 -0.80 -1.90 -2.15 -5.05 -3 -7 -0.80 -1.90 -2.15 -5 -3 -6.85 -0.80 -1.90 -2.25 -5.25 -3.25 -7.50 -0.95 -2.30 -2.55 -6 -3.50 -8.25 -1 -2.30 -2.45 -5.65 -3.25 -7.50 -0.85 -1.90 -2.15 -4.95 -3 -6.90 -0.80 -1.90 -2.15 -5 -2.95 -6.85 -0.80 -1.90 -1.70 -4 -2 -4.75 l-0.55 -1.40 -29.50 0 -29.50 0 0 109.25 0 109.25 17 0 17 0 0 -93.50z m-625.10 66.45 c0.10 -0.25 0.80 -0.45 1.50 -0.50 0.75 0 1.05 -0.15 0.65 -0.30 -0.35 -0.15 -1.60 0 -2.75 0.35 -3.60 1.05 -4.15 1.40 -1.80 1.10 1.25 -0.15 2.35 -0.45 2.40 -0.65z m296.10 -35.70 c15.80 -2.05 21.95 -2.30 23.45 -0.80 0.90 0.90 0.90 0.90 1.55 -0.10 0.55 -0.95 0.95 -1 6.75 -0.65 3.35 0.15 8.70 0.65 11.80 1.10 8.55 1.15 13.20 1.65 13.35 1.45 0.10 -0.10 -0.30 -1.55 -0.90 -3.30 -1.25 -3.50 -1.20 -7.05 0.15 -9.15 0.45 -0.65 2.45 -2.45 4.45 -3.95 2 -1.50 4.35 -3.40 5.15 -4.15 0.85 -0.75 2.95 -2.65 4.75 -4.15 1.80 -1.50 3.60 -3.10 4 -3.55 0.40 -0.40 2 -1.75 3.50 -3 1.50 -1.20 3.20 -2.70 3.75 -3.25 0.55 -0.55 1.80 -1.60 2.75 -2.40 1.45 -1.10 1.60 -1.45 1 -1.85 -0.40 -0.25 -1.15 -0.50 -1.60 -0.50 -0.50 0 -0.90 -0.20 -0.90 -0.50 0 -0.25 -0.30 -0.50 -0.70 -0.50 -0.40 0 -1.10 -0.40 -1.55 -0.85 -0.70 -0.65 -0.80 -1.40 -0.50 -4.10 0.25 -2.70 2.45 -12.40 4.05 -17.90 0.45 -1.55 -0.45 -1.50 -7.80 0.35 -6.35 1.60 -8.75 1.80 -10.65 0.95 -1.25 -0.55 -2.85 -3.30 -2.85 -4.95 0 -0.50 -0.15 -1.25 -0.30 -1.70 -0.35 -0.90 -0.70 -0.60 -4.75 4.20 -1.50 1.80 -2.85 3.35 -3 3.50 -0.20 0.15 -0.90 1.10 -1.60 2.15 -1.55 2.30 -3 3.50 -5.55 4.55 -2.90 1.20 -4.45 1.05 -5.15 -0.55 -1.35 -2.90 -1 -5.70 3.85 -30.95 0.55 -2.80 1 -5.25 1 -5.40 0 -0.20 -1.20 0.45 -2.60 1.45 -2.35 1.55 -3 1.75 -5.80 1.75 -2.90 0 -3.25 -0.15 -4.70 -1.65 -0.85 -0.85 -3.40 -5.50 -5.70 -10.35 -4.05 -8.45 -5.20 -10.25 -5.20 -8.05 0 0.60 -0.20 1.05 -0.40 1.05 -0.25 0 -1.60 2.55 -3.05 5.65 -6.20 13.25 -6.10 13.10 -10.10 13.65 -1.80 0.25 -2.75 0.05 -4.45 -0.80 -1.20 -0.60 -2.50 -1.45 -2.90 -1.80 -0.80 -0.85 -1.60 -0.90 -1.60 -0.15 0 0.30 0.55 3.40 1.25 6.85 4.20 21.60 4.65 24.85 3.80 27.60 l-0.65 2.15 -2.90 -0.30 c-3.60 -0.30 -5.15 -1.40 -8.60 -6 -1.40 -1.95 -3.85 -4.85 -5.45 -6.50 l-2.85 -3 -0.35 2.20 c-0.40 2.35 -1.55 4.95 -2.45 5.55 -0.95 0.65 -5.50 0.45 -8.25 -0.40 -1.45 -0.40 -4.50 -1.15 -6.75 -1.65 l-4.15 -0.90 0.95 3.55 c2.50 9.10 3.95 16.15 3.80 18 -0.10 1.20 -0.65 1.75 -3.05 3.05 l-2.85 1.60 1.05 1.30 c0.55 0.75 2.40 2.40 4.10 3.70 1.70 1.25 3.65 2.90 4.35 3.65 0.70 0.70 2.25 2.10 3.50 3.05 1.25 0.95 2.60 2.05 3 2.50 0.40 0.45 1.75 1.55 3 2.45 1.25 0.95 2.70 2.15 3.25 2.70 0.55 0.60 1.90 1.70 3 2.50 2.30 1.70 3.20 2.55 4.40 4.30 1.15 1.65 1.10 6.30 -0.10 9.80 l-1 2.75 1.60 -0.25 c0.90 -0.15 4.20 -0.60 7.35 -1.05z m-217 -11.85 c0 -0.95 -0.10 -1 -0.50 -0.40 -0.65 0.95 -0.65 1.50 0 1.50 0.30 0 0.50 -0.50 0.50 -1.10z m-126.50 -16.45 c0 -1.85 -0.20 -2.90 -0.50 -2.70 -0.25 0.15 -0.50 1.55 -0.50 3.05 0 1.50 0.25 2.70 0.50 2.70 0.30 0 0.50 -1.35 0.50 -3.05z m232 0.05 c0 -1.65 -0.20 -3 -0.50 -3 -0.30 0 -0.50 1.35 -0.50 3 0 1.65 0.20 3 0.50 3 0.30 0 0.50 -1.35 0.50 -3z"/>
  <path d="M608.65 566.45 c0.35 -4.10 2.05 -7.25 5.10 -9.40 2.45 -1.75 2.45 -1.75 8 -1.80 5.40 0 5.65 0.05 7.75 1.50 2.90 2 4.50 5.40 4.50 9.65 l0 3.10 -12.80 0 -12.85 0 0.30 -3.05z"/>
  <path d="M652.65 566.45 c0.35 -4.10 2.05 -7.25 5.10 -9.40 2.45 -1.75 2.45 -1.75 8 -1.80 5.40 0 5.65 0.05 7.75 1.50 2.90 2 4.50 5.40 4.50 9.65 l0 3.10 -12.80 0 -12.85 0 0.30 -3.05z"/>
  <path d="M790 567.90 c0 -4.35 2.50 -9 5.90 -11.15 1.95 -1.25 2.80 -1.45 7.30 -1.65 4.95 -0.20 5.10 -0.15 7.40 1.35 3.40 2.20 4.85 4.75 5.25 9.30 l0.30 3.75 -13.10 0 -13.05 0 0 -1.60z"/>
  <path d="M1056.10 566.55 c0.30 -4 2.05 -7.30 5.15 -9.50 2.45 -1.75 2.45 -1.75 8 -1.80 5.40 0 5.65 0.05 7.75 1.50 2.90 2 4.50 5.40 4.50 9.65 l0 3.10 -12.80 0 -12.80 0 0.20 -2.95z"/>
  <path d="M1122.70 589.05 c-2.45 -1.10 -4.85 -3.90 -5.65 -6.55 -1.15 -3.85 -1.55 -9.55 -1.05 -14 0.70 -5.50 2.45 -9.20 5.40 -11.25 2 -1.40 2.60 -1.50 7.25 -1.65 5.80 -0.25 8.15 0.30 10.55 2.40 5.75 5.10 6.15 22.95 0.65 28.95 -2.10 2.25 -4.65 3.05 -10.10 3.05 -3.80 0 -5.50 -0.25 -7.05 -0.95z"/>
  <path d="M1379.65 566.45 c0.35 -4.10 2.05 -7.25 5.10 -9.40 2.45 -1.75 2.45 -1.75 8 -1.80 5.40 0 5.65 0.05 7.75 1.50 2.90 2 4.50 5.40 4.50 9.65 l0 3.10 -12.80 0 -12.85 0 0.30 -3.05z"/>
  <path d="M759 457.75 c0 -1.70 0.05 -1.75 2 -1.75 1.95 0 2 0.05 2 1.75 0 1.70 -0.05 1.75 -2 1.75 -1.95 0 -2 -0.05 -2 -1.75z"/>
  <path d="M760.90 445.10 c-6.80 -5.75 -10.25 -11.80 -10.75 -18.85 -0.25 -3.70 -0.10 -4.65 1.30 -9.30 7.70 -25.15 14.40 -37.80 21.80 -41.25 1.40 -0.65 2.80 -1.20 3.15 -1.20 0.40 0 3.15 -2.05 6.15 -4.55 4.95 -4.15 5.45 -4.70 5.45 -6.25 0 -1.45 0.20 -1.70 1.15 -1.70 0.60 0 2 -0.45 3 -0.95 2.90 -1.50 10.85 -1.85 17.10 -0.80 5.35 0.90 8.30 2 10.20 3.80 l1.15 1.10 -0.20 10.80 c-0.25 10.65 -0.30 10.85 -2.05 16.55 -3.70 12 -8 20.25 -16.10 31.25 -6.85 9.25 -14.90 17.25 -20.75 20.65 -5.40 3.15 -7 3.60 -12.40 3.60 l-4.85 -0.05 -3.35 -2.85z"/>
  <path d="M729.75 418.75 l0 -7.75 1.90 0 1.85 0 0 7.75 0 7.75 -1.90 0 -1.85 0 0 -7.75z"/>
  <path d="M812.15 413.65 c0.20 -2.45 0.90 -4.50 4.05 -12.15 l1.75 -4.25 2.15 -0.15 c2.05 -0.15 2.20 -0.05 2.80 1.55 1.15 3.15 0.75 5.75 -1.70 11.75 l-2.35 5.60 -3.45 0 -3.50 0 0.25 -2.35z"/>
  <path d="M828.50 411.35 c0 -1.75 0.35 -4.20 0.80 -5.50 0.75 -2.25 0.85 -2.35 2.75 -2.35 l1.95 0 0 2.50 c0 1.40 -0.35 3.85 -0.85 5.50 -0.80 3 -0.80 3 -2.75 3 l-1.90 0 0 -3.15z"/>
  <path d="M750 390.80 c0 -0.95 0.35 -2.05 0.75 -2.50 0.40 -0.40 0.75 -0.95 0.75 -1.25 0 -0.30 0.90 -0.55 2 -0.55 1.95 0 2 0.05 2 1.75 0 0.90 -0.30 1.90 -0.65 2.10 -0.40 0.20 -0.80 0.80 -1 1.30 -0.20 0.60 -0.85 0.85 -2.10 0.85 -1.65 0 -1.75 -0.10 -1.75 -1.70z"/>
  <path d="M527.15 459.65 c-0.35 -0.10 -0.65 -1 -0.65 -1.95 0 -1.70 0 -1.70 2.25 -1.70 l2.25 0 0 2 c0 1.95 -0.05 2 -1.60 1.95 -0.90 0 -1.95 -0.15 -2.25 -0.30z"/>
  <path d="M529.70 445.65 c-6.70 -5.30 -10.95 -12.45 -11.50 -19.30 -0.30 -3.35 -0.15 -4.40 1.30 -9.20 1.60 -5.30 3.30 -10.35 5.85 -17.40 2.85 -7.90 7.85 -17 11.55 -20.95 1.80 -1.85 6.05 -4.30 7.60 -4.30 0.40 0 3.15 -2.05 6.15 -4.50 4.90 -4.15 5.35 -4.70 5.35 -6.25 0 -1.55 0.15 -1.75 1.25 -1.75 0.70 0 2.25 -0.50 3.40 -1.05 1.80 -0.95 3 -1.10 8.85 -1.15 9.05 -0.05 15.15 1.35 18.05 4.25 0.90 0.90 0.95 1.70 0.95 11.10 0 8.65 -0.15 10.65 -1 13.85 -1.80 6.55 -5.05 15.55 -6.10 16.75 -0.20 0.25 -0.40 0.75 -0.40 1.15 0 1.40 -8.05 13.65 -13.40 20.35 -7.95 10 -13.60 15.05 -20.95 18.75 -3.90 1.95 -4.20 2 -9 2 l-5 0 -2.95 -2.35z"/>
  <path d="M497.85 426.15 c-0.20 -0.15 -0.35 -3.80 -0.35 -8 l0 -7.70 1.90 0.15 1.85 0.15 0.15 7.90 0.15 7.85 -1.70 0 c-0.95 0 -1.85 -0.15 -2 -0.35z"/>
  <path d="M580 414.20 c0 -1.70 1.70 -6.65 4.90 -14.05 1.30 -3.15 1.30 -3.15 3.40 -3.15 1.90 0 2.15 0.15 2.65 1.55 1.15 3.30 0.70 6.50 -1.70 12 -1.25 2.85 -2.25 5.25 -2.25 5.30 0 0.10 -1.55 0.15 -3.50 0.15 l-3.50 0 0 -1.80z"/>
  <path d="M596.50 411.45 c0 -1.70 0.40 -4.15 0.85 -5.50 0.85 -2.35 0.95 -2.45 2.75 -2.45 l1.90 0 0 2.80 c0 1.55 -0.35 4 -0.80 5.50 -0.75 2.70 -0.80 2.70 -2.75 2.70 l-1.95 0 0 -3.05z"/>
  <path d="M499.80 402.75 c-0.15 -0.45 -0.30 -1.50 -0.30 -2.30 0 -1.45 0.05 -1.50 2.15 -1.35 2.10 0.15 2.10 0.15 2.10 2.15 0 1.95 -0.05 2 -1.80 2.15 -1.30 0.10 -1.90 -0.05 -2.15 -0.65z"/>
  <path d="M515.50 396.75 c0 -1.65 0.10 -1.75 1.75 -1.75 1.65 0 1.75 0.10 1.75 1.75 0 1.65 -0.10 1.75 -1.75 1.75 -1.65 0 -1.75 -0.10 -1.75 -1.75z"/>
  <path d="M519 390.30 c0 -2.80 0.40 -3.30 2.55 -3.30 1.85 0 1.95 0.05 1.95 1.65 -0.05 2.20 -1.05 3.35 -2.95 3.35 -1.45 0 -1.55 -0.15 -1.55 -1.70z"/>
  <path d="M1090 371.75 c0 -1.90 1.20 -6.10 16.05 -56.90 1.95 -6.65 3.95 -13.55 4.45 -15.35 0.50 -1.80 2.20 -7.70 3.80 -13.10 l2.85 -9.90 1.70 0 c1.85 0 1.95 0.20 3.30 4.75 1.95 6.65 2.90 9.95 5.90 20.40 0.55 1.95 1.65 5.75 2.45 8.35 0.80 2.60 1.90 6.40 2.45 8.40 0.60 1.95 1.50 5.25 2.10 7.25 0.55 1.95 1.65 5.75 2.45 8.35 0.80 2.60 1.90 6.40 2.45 8.40 0.60 1.95 1.50 5.25 2.10 7.25 0.55 1.95 1.65 5.75 2.45 8.35 3.25 10.80 3.55 12 3.40 13.60 l-0.15 1.65 -28.85 0.15 -28.90 0.10 0 -1.75z"/>
 </g>
 <g fill="#366cbb">
  <path d="M217.45 474.80 c-0.10 -0.10 -2.90 -0.30 -6.20 -0.50 -3.30 -0.15 -6.90 -0.45 -8 -0.60 -5.10 -0.70 -12.10 -2.35 -13.85 -3.20 -1.05 -0.50 -2.60 -1.10 -3.45 -1.25 -0.85 -0.20 -1.65 -0.65 -1.75 -1 -0.15 -0.35 -0.95 -0.95 -1.75 -1.25 -0.80 -0.35 -1.45 -0.75 -1.45 -0.95 0 -0.15 -0.80 -0.85 -1.75 -1.45 -3.20 -2.20 -8.20 -9.95 -9.50 -14.85 -0.20 -0.80 -0.45 -1.70 -0.55 -2 -0.30 -1 -0.70 -3 -1 -5 -0.20 -1.10 -0.45 -2.65 -0.60 -3.50 -0.40 -2.45 -0.65 -305.90 -0.25 -306.30 0.25 -0.20 1.30 -0.50 2.40 -0.65 1.15 -0.20 2.60 -0.45 3.25 -0.60 1.75 -0.35 3.85 -0.65 6.50 -0.95 1.25 -0.15 2.70 -0.30 3.25 -0.45 1.75 -0.30 5.75 -0.85 7.80 -1.05 1.10 -0.10 3.15 -0.35 4.60 -0.55 4.35 -0.55 6.70 -0.65 16.85 -0.70 8.90 -0.05 11.70 0.10 16.25 0.75 0.85 0.10 2.65 0.35 4 0.50 5.30 0.65 16.75 4.60 16.75 5.80 0 0.20 0.50 0.55 1.10 0.75 2.05 0.65 7.55 6.85 9.80 11.15 1.20 2.20 2.05 4.05 1.85 4.05 -0.15 0 -0.05 0.45 0.25 1.05 0.30 0.55 0.65 1.45 0.80 2 0.60 2.65 0.70 3.30 0.95 4.95 0.15 1 0.40 2.35 0.60 3 0.20 0.70 0.40 22.40 0.50 48.25 0.10 25.85 0.20 48.45 0.30 50.25 l0.10 3.25 53.60 0 53.65 0 0 -65.55 c0 -52.05 0.15 -65.55 0.65 -65.60 0.30 0 1.35 -0.15 2.25 -0.30 0.85 -0.15 2.20 -0.40 3 -0.50 0.75 -0.15 1.90 -0.35 2.60 -0.50 0.70 -0.10 2.15 -0.35 3.25 -0.50 2.10 -0.25 4.20 -0.55 7.50 -1.05 1.10 -0.20 3.15 -0.45 4.50 -0.55 1.40 -0.15 3.30 -0.35 4.25 -0.50 5 -0.60 7.55 -0.70 16.25 -0.75 8.40 0 14.30 0.25 17.10 0.75 0.50 0.10 2.15 0.35 3.65 0.55 2.55 0.35 5.70 1.05 9.25 2.15 2.20 0.70 8.55 3.95 10.15 5.25 2.70 2.20 5.90 5.80 7.50 8.45 2.70 4.50 4.05 8.80 5.45 17.40 0.20 0.95 0.40 70.55 0.50 154.65 l0.20 152.85 -1.05 0.05 c-1.10 0.10 -1.95 0.25 -2.10 0.45 -0.10 0.05 -0.60 0.20 -1.15 0.25 -1 0.15 -3.90 0.60 -6.30 1 -1.40 0.25 -4.45 0.75 -6.45 1 -0.70 0.10 -2.70 0.30 -4.50 0.50 -1.80 0.20 -3.90 0.40 -4.75 0.50 -2.80 0.30 -15.50 1 -18.25 1 -6.15 -0.05 -15.55 -0.75 -20.25 -1.50 -14 -2.15 -23.40 -8.20 -28.25 -18 -1.15 -2.35 -2.15 -4.75 -2.30 -5.25 -0.10 -0.55 -0.30 -1.40 -0.45 -1.85 -0.65 -2.50 -1.60 -7.65 -1.75 -9.40 -0.05 -1.10 -0.20 -2.65 -0.25 -3.50 -0.05 -0.80 -0.15 -22.35 -0.20 -47.85 l-0.05 -46.40 -53.75 0 -53.75 0 -0.10 64.35 -0.15 64.35 -2.50 0.65 c-1.35 0.35 -3.30 0.75 -4.25 0.85 -0.95 0.15 -2.30 0.40 -3 0.55 -0.70 0.15 -2.25 0.35 -3.50 0.50 -1.25 0.15 -2.80 0.35 -3.45 0.50 -0.65 0.10 -2.80 0.35 -4.75 0.55 -1.95 0.15 -4.20 0.40 -5.05 0.45 -1.50 0.15 -8.60 0.60 -16.55 1 -2.25 0.10 -4.15 0.10 -4.25 0.05z"/>
 </g>
 <g fill="#ac2317">
  <path d="M934 469 c-12.05 -1.15 -21.15 -3.10 -27.50 -5.95 -1.80 -0.85 -4 -1.80 -4.85 -2.15 -0.90 -0.35 -1.65 -0.75 -1.65 -0.90 0 -0.15 -1 -0.70 -2.25 -1.25 -1.25 -0.55 -2.25 -1.15 -2.25 -1.35 0 -0.20 -0.75 -0.75 -1.60 -1.20 -2.50 -1.30 -5.15 -3.50 -10.40 -8.70 -6.85 -6.80 -11.60 -14.15 -17 -26.25 -1.05 -2.35 -3.80 -10.30 -4.30 -12.50 -0.40 -1.65 -0.50 -1.95 -0.85 -3 -0.15 -0.55 -0.45 -1.60 -0.60 -2.35 -0.65 -3.55 -0.85 -4.25 -1.25 -5.90 -0.25 -0.95 -0.60 -2.65 -0.75 -3.75 -0.30 -1.90 -0.45 -3 -1 -5.75 -0.15 -0.70 -0.40 -2.50 -0.55 -4 -0.15 -1.50 -0.35 -3.55 -0.45 -4.50 -0.75 -6.40 -1 -13.55 -1 -26 0 -12.50 0.50 -24.15 1 -24.95 0.05 -0.20 0.30 -1.75 0.50 -3.55 0.65 -6.90 3.35 -18.30 6.30 -27.25 1.95 -5.80 8.75 -20.75 9.50 -20.75 0.15 0 0.60 -0.70 0.95 -1.50 0.35 -0.80 0.80 -1.50 1.05 -1.50 0.20 0 0.55 -0.45 0.70 -1 0.15 -0.55 0.60 -1.30 0.90 -1.60 0.35 -0.35 1.40 -1.65 2.35 -2.90 2 -2.65 5.35 -6.10 7.85 -8.10 1 -0.75 2.80 -2.30 4.10 -3.40 2.25 -1.95 12.75 -8.50 13.65 -8.50 0.25 0 1.30 -0.45 2.35 -1 4.40 -2.20 12.85 -4.80 19.30 -5.80 3.95 -0.65 13.10 -1.40 17.25 -1.45 3.25 0 18.05 0.70 19.50 0.95 0.70 0.10 2.60 0.35 4.30 0.50 10.85 1.05 29.60 5.40 34.65 8.05 l1.55 0.80 0 13.20 0 13.25 -3.60 -0.30 c-13.90 -1.05 -24.05 -1.45 -37.90 -1.45 -15.60 0 -22.85 0.45 -27.50 1.80 -2.95 0.80 -3.05 0.85 -4.25 1.15 -5.40 1.25 -13.85 6.45 -18.70 11.40 -2.85 2.95 -7.05 8.85 -7.05 9.90 0 0.30 -0.20 0.50 -0.50 0.50 -0.25 0 -0.50 0.45 -0.50 1 0 0.55 -0.20 1 -0.50 1 -0.25 0 -0.50 0.40 -0.50 0.90 0 0.50 -0.20 1.10 -0.45 1.35 -1.10 1.15 -5.05 15.15 -5.75 20.25 -0.15 1.25 -0.40 2.80 -0.50 3.50 -1.60 9.35 -1.90 31.40 -0.60 45.25 0.30 3.20 0.90 8.05 1.15 9 0.10 0.55 0.30 1.50 0.45 2.15 0.10 0.60 0.30 1.60 0.40 2.25 1.05 5.15 1.90 8.55 2.30 9.10 0.20 0.30 0.40 0.85 0.40 1.25 0 0.40 0.70 2.65 1.60 5 3.05 8.25 8.95 17.15 13.85 20.90 1.30 1 2.70 2.10 3.05 2.45 0.35 0.35 0.85 0.65 1.10 0.65 0.25 0 0.75 0.30 1.10 0.70 0.90 0.85 4.85 2.80 5.75 2.80 0.35 0 0.65 0.20 0.65 0.45 0 0.25 0.50 0.55 1.15 0.70 0.60 0.15 2.70 0.75 4.60 1.30 6.85 2.10 13.75 2.70 29.95 2.60 6.60 -0.05 12 -0.10 12.10 -0.20 0.25 -0.30 0.80 -12.70 1 -21.95 0.20 -10.25 0.15 -10.40 -0.90 -10.95 -1 -0.55 -3.70 -0.45 -10.40 0.30 -0.95 0.10 -3 0.30 -4.50 0.45 -1.50 0.15 -3.30 0.40 -4 0.55 -1.25 0.25 -3.25 0.50 -7.85 1 -1.35 0.15 -3.15 0.35 -4 0.50 -1.50 0.20 -1.65 0.10 -1.65 -0.95 0 -0.65 0.45 -2.25 0.95 -3.50 1.25 -2.80 1.75 -5.45 1.35 -6.90 -0.35 -1.45 -2.45 -3.80 -5.05 -5.70 -1.10 -0.80 -2.45 -1.90 -3 -2.50 -0.55 -0.55 -2 -1.75 -3.25 -2.70 -1.25 -0.90 -2.60 -2 -3 -2.45 -0.40 -0.45 -1.75 -1.55 -3 -2.50 -1.25 -0.95 -2.80 -2.35 -3.50 -3.05 -0.70 -0.75 -2.60 -2.35 -4.25 -3.65 -3.65 -2.80 -7.70 -6.90 -7 -7.20 0.30 -0.10 2.10 -1.05 4 -2.10 3.70 -2 3.60 -1.85 2.95 -5.50 -0.45 -2.70 -0.85 -4.30 -1.65 -6.95 -0.25 -0.90 -0.50 -1.80 -0.55 -2 0 -0.20 -0.30 -1.25 -0.60 -2.35 -0.90 -3.25 -1.25 -4.60 -1.70 -6.70 -0.15 -0.70 -0.35 -1.40 -0.50 -1.65 -0.15 -0.20 0.05 -0.40 0.45 -0.40 0.95 0 11.70 2.40 13.75 3.05 1.40 0.45 4 0.70 5.90 0.50 0.75 -0.05 2.05 -3.25 2.70 -6.65 0.65 -3.35 1.30 -3.60 3.15 -1.25 0.70 0.85 2.25 2.65 3.50 3.95 1.20 1.25 3.35 3.85 4.80 5.75 2.85 3.85 4.60 5.35 6.90 5.85 1.40 0.30 1.60 0.20 2.05 -1.15 0.50 -1.40 0.45 -3.30 -0.25 -6.05 -0.15 -0.70 -0.35 -1.85 -0.45 -2.65 -0.15 -1.30 -0.35 -2.15 -0.90 -4.85 -0.35 -1.65 -0.90 -5.10 -0.95 -5.85 0 -0.35 -0.40 -0.65 -0.90 -0.65 -1.05 0 -1.20 -0.25 -1.70 -2.45 -0.35 -1.55 -0.25 -1.65 0.65 -1.45 0.80 0.20 1 0.05 0.85 -0.60 -0.10 -0.50 -0.30 -1.65 -0.45 -2.55 -0.15 -0.95 -0.50 -2.95 -0.80 -4.45 -1.20 -6.30 -1.25 -6.10 0.35 -5.70 0.75 0.20 1.70 0.65 2.05 1.05 0.35 0.35 0.85 0.65 1.10 0.65 0.25 0 0.75 0.30 1.10 0.70 0.40 0.35 1.60 1.15 2.70 1.65 3.60 1.80 6.50 -0.20 8.70 -6 1.25 -3.30 5.70 -12.35 6.10 -12.35 0.20 0 0.40 -0.45 0.40 -1 0 -0.55 0.20 -1 0.50 -1 0.25 0 0.60 -0.55 0.80 -1.25 0.15 -0.70 0.55 -1.25 0.90 -1.25 0.30 0 2.70 4.55 5.30 10.10 6.80 14.45 8.15 15.50 14.50 11.25 3.85 -2.60 6.20 -3.40 5.80 -2 -0.10 0.50 -0.80 3.95 -1.50 7.65 -0.70 3.70 -1.95 10.45 -2.85 15 -1.80 9.25 -2.10 12.95 -1.30 14.70 0.55 1.10 0.60 1.15 2.30 0.45 2.40 -1 3.85 -2.25 5.40 -4.50 0.70 -1.05 1.40 -2 1.60 -2.15 0.15 -0.15 0.95 -1.05 1.75 -2 3.45 -4.20 7.50 -8.50 8.05 -8.50 0.30 0 0.60 0.30 0.65 0.65 0 0.30 0.15 1.15 0.30 1.85 0.15 0.70 0.35 1.80 0.50 2.50 0.35 2.15 1.40 3.95 2.50 4.35 1.60 0.55 2.25 0.50 6.05 -0.50 1.95 -0.50 4.05 -1 4.75 -1.15 0.70 -0.15 1.60 -0.35 2 -0.45 0.40 -0.10 1.55 -0.35 2.50 -0.50 0.95 -0.15 2.10 -0.40 2.50 -0.50 1.95 -0.60 2.05 0.45 0.55 5.80 -4.30 15.45 -4.60 18.90 -1.65 18.95 0.30 0 0.60 0.25 0.60 0.50 0 0.30 0.35 0.50 0.75 0.50 1.40 0 3.75 1.50 3.75 2.40 0 0.45 -0.80 1.35 -1.70 2 -0.95 0.65 -2.50 1.90 -3.40 2.75 -0.90 0.90 -2.90 2.60 -4.40 3.85 -1.50 1.20 -3.10 2.60 -3.50 3 -0.40 0.45 -2.20 2.05 -4 3.55 -1.80 1.50 -3.90 3.40 -4.75 4.15 -0.80 0.75 -3.15 2.65 -5.15 4.15 -5.65 4.25 -6.15 5.55 -4.30 11.05 1.70 5.05 1.70 5.85 0.20 5.80 -2.10 -0.05 -7.60 -0.70 -10.50 -1.20 -1.50 -0.25 -4.20 -0.60 -6 -0.80 -1.80 -0.15 -3.65 -0.40 -4.15 -0.50 -0.50 -0.10 -3 -0.25 -5.60 -0.40 -6.25 -0.40 -6.35 -0.20 -5.95 7.45 0.15 3 0.35 9.90 0.45 15.25 0.05 5.35 0.15 9.90 0.20 10.10 0.05 0.35 4.95 0.25 15.30 -0.40 2.50 -0.15 5.70 -0.30 7.15 -0.35 l2.70 -0.10 0.05 13.25 0 13.20 -4.55 1.55 c-4.45 1.50 -5.05 1.65 -6.70 2.05 -0.50 0.10 -1.40 0.35 -2 0.50 -0.65 0.15 -1.50 0.35 -1.90 0.45 -0.40 0.10 -0.75 0.20 -0.75 0.30 0 0.05 -0.45 0.15 -1 0.20 -1.10 0.15 -3.45 0.55 -5.05 0.95 -1.15 0.25 -3.35 0.60 -6.30 1.05 -1.05 0.15 -2.75 0.40 -3.75 0.55 -3.90 0.60 -8.75 1.20 -12.90 1.50 -5 0.35 -22.85 0.50 -26.25 0.20z"/>
  <path d="M1028.60 447.65 c3.20 -9.85 8.65 -26.55 12.10 -37.15 3.40 -10.60 8.95 -27.70 12.30 -38 5.95 -18.40 12.75 -39.25 24.50 -75.50 3.25 -10.05 8.45 -26.05 11.60 -35.65 l5.65 -17.35 24.75 0.10 24.75 0.15 1.80 5.40 c1 2.95 1.75 5.35 1.60 5.35 -0.10 0 0.15 0.70 0.60 1.50 0.45 0.85 0.65 1.50 0.50 1.50 -0.15 0 0 0.50 0.35 1.15 0.35 0.60 0.55 1.30 0.50 1.50 -0.05 0.20 0.25 1.05 0.65 1.85 0.45 0.85 0.65 1.50 0.50 1.50 -0.15 0 -0.05 0.45 0.25 1.05 0.30 0.55 0.65 1.45 0.80 2 0.10 0.50 0.30 1.40 0.40 1.90 0.15 0.55 0.50 1.45 0.80 2 0.30 0.60 0.40 1.05 0.25 1.05 -0.15 0 0.05 0.70 0.50 1.50 0.45 0.80 0.65 1.50 0.50 1.50 -0.15 0 0.05 0.65 0.50 1.50 0.45 0.85 0.65 1.50 0.50 1.50 -0.15 0 -0.05 0.45 0.25 1.05 0.30 0.55 0.65 1.40 0.75 1.85 0.10 0.45 2.25 7.05 4.75 14.60 2.50 7.55 4.65 14.15 4.75 14.60 0.10 0.45 0.45 1.30 0.75 1.85 0.30 0.60 0.40 1.05 0.25 1.05 -0.15 0 0.05 0.70 0.50 1.50 0.45 0.85 0.65 1.50 0.50 1.50 -0.15 0 0.05 0.70 0.50 1.50 0.45 0.85 0.65 1.50 0.50 1.50 -0.15 0 -0.05 0.45 0.25 1.05 0.30 0.55 0.65 1.45 0.80 2 0.10 0.50 0.30 1.40 0.40 1.90 0.15 0.55 0.50 1.45 0.80 2 0.30 0.60 0.40 1.05 0.25 1.05 -0.15 0 0.05 0.65 0.50 1.50 0.45 0.80 0.65 1.50 0.50 1.50 -0.15 0 -0.05 0.45 0.25 1.05 0.30 0.55 0.65 1.40 0.75 1.85 0.10 0.45 2.45 7.70 5.25 16.10 2.80 8.40 5.15 15.65 5.25 16.10 0.10 0.45 0.45 1.30 0.75 1.85 0.30 0.60 0.40 1.05 0.25 1.05 -0.15 0 0.05 0.70 0.50 1.50 0.45 0.85 0.65 1.50 0.50 1.50 -0.15 0 0.05 0.65 0.50 1.50 0.40 0.80 0.75 1.55 0.70 1.60 -0.05 0.10 0.20 1.05 0.50 2.15 0.30 1.10 0.55 2.25 0.55 2.50 0.05 0.30 0.40 1.05 0.80 1.65 0.45 0.65 0.65 1.30 0.50 1.45 -0.15 0.15 0.05 0.90 0.50 1.70 0.40 0.80 0.60 1.45 0.45 1.45 -0.15 0 -0.05 0.45 0.25 1.05 0.30 0.55 0.65 1.40 0.75 1.85 0.10 0.45 2.45 7.70 5.25 16.10 2.80 8.40 5.15 15.65 5.25 16.10 0.10 0.45 0.45 1.30 0.75 1.85 0.30 0.60 0.40 1.05 0.25 1.05 -0.15 0 0.05 0.70 0.50 1.50 0.45 0.85 0.65 1.50 0.50 1.50 -0.15 0 0.05 0.65 0.50 1.50 0.40 0.80 0.75 1.55 0.70 1.60 -0.05 0.10 0.20 1.05 0.50 2.15 0.30 1.10 0.50 2.15 0.55 2.40 0 0.20 0.35 1.05 0.75 1.85 0.45 0.85 0.65 1.50 0.50 1.50 -0.15 0 0.05 0.70 0.50 1.50 0.45 0.85 0.65 1.50 0.50 1.50 -0.15 0 -0.05 0.45 0.25 1.05 0.30 0.55 0.65 1.40 0.75 1.85 0.10 0.45 1.75 5.65 3.70 11.50 1.95 5.85 3.55 10.75 3.55 10.85 0 0.15 -9.30 0.25 -20.65 0.25 -16.20 0 -20.70 -0.15 -20.75 -0.60 -0.05 -1.05 -0.45 -2.40 -2.10 -7.40 -1.50 -4.55 -1.75 -5.25 -2.20 -7.45 -0.15 -0.55 -0.45 -1.40 -0.70 -1.90 -0.30 -0.50 -0.50 -1.05 -0.50 -1.30 0 -0.20 -0.50 -1.95 -1.10 -3.85 -0.60 -1.90 -1 -3.55 -0.95 -3.60 0.05 -0.10 -0.15 -0.65 -0.50 -1.30 -0.35 -0.65 -0.70 -1.60 -0.85 -2.15 -0.45 -2.20 -0.70 -2.90 -2.20 -7.45 -1.50 -4.55 -1.75 -5.25 -2.20 -7.45 -0.15 -0.55 -0.50 -1.50 -0.85 -2.15 -0.35 -0.65 -0.55 -1.20 -0.50 -1.30 0.05 -0.05 -0.40 -1.75 -1 -3.75 -0.65 -1.95 -1.20 -3.70 -1.20 -3.85 -0.05 -0.15 -0.35 -1.20 -0.70 -2.40 l-0.60 -2.10 -37.85 0.10 -37.85 0.15 -2.65 9 c-1.50 4.95 -3.35 11.15 -4.10 13.75 -7.70 25.90 -9.55 32.10 -10.25 34.40 l-0.80 2.60 -20.35 0 -20.35 0 5.85 -17.85z m117.50 -76.90 c-0.05 -0.55 -0.20 -1.20 -0.30 -1.50 -1.10 -3.75 -1.65 -5.65 -2 -7 -0.10 -0.55 -0.55 -2 -0.95 -3.25 -0.65 -1.85 -1.05 -3.25 -2.10 -7 -0.05 -0.15 -0.35 -1.25 -0.75 -2.50 -0.35 -1.25 -0.75 -2.55 -0.85 -2.85 -0.10 -0.35 -0.20 -0.95 -0.30 -1.25 -0.10 -0.35 -0.50 -1.65 -0.85 -2.90 -0.40 -1.25 -0.70 -2.40 -0.80 -2.60 -0.05 -0.25 -0.15 -0.55 -0.20 -0.75 -0.10 -0.25 -0.20 -0.60 -0.25 -0.90 0 -0.25 -0.55 -2.15 -1.15 -4.10 -3.60 -11.90 -3.40 -11.20 -3.75 -12.65 -0.10 -0.40 -0.50 -1.75 -0.85 -3 -0.35 -1.25 -0.75 -2.60 -0.85 -3 -0.30 -1.25 -0.40 -1.65 -1.55 -5.35 -0.60 -2 -1.60 -5.30 -2.20 -7.25 -0.60 -2 -1.15 -3.95 -1.25 -4.25 -0.25 -1.15 -0.45 -1.85 -1.15 -4.15 -0.35 -1.25 -0.75 -2.55 -0.85 -2.85 -0.10 -0.35 -0.20 -0.95 -0.30 -1.25 -0.10 -0.35 -0.50 -1.65 -0.85 -2.90 -0.35 -1.25 -0.75 -2.45 -0.80 -2.75 -0.10 -0.25 -0.50 -1.70 -0.90 -3.20 -0.40 -1.50 -0.95 -2.90 -1.20 -3.15 -0.40 -0.40 -2.75 7.10 -7.10 22.60 -0.50 1.80 -2.50 8.65 -4.45 15.25 -10.25 35.20 -16.05 55.10 -16.05 55.50 0 0.15 12.30 0.20 27.40 0.15 27.05 -0.15 27.35 -0.15 27.20 -1.15z"/>
  <path d="M1247 354.75 l0 -110.75 31 0 31 0 0.55 1.40 c0.30 0.75 1.20 2.85 2 4.75 2.65 6.20 4.55 10.60 6 13.85 0.75 1.80 2.20 5.10 3.20 7.40 0.95 2.25 2.55 5.95 3.50 8.25 1 2.25 2.45 5.55 3.20 7.35 2.20 5.05 4.55 10.45 6.10 14.15 0.80 1.85 2.10 4.85 2.95 6.75 0.80 1.85 2.25 5.20 3.25 7.50 0.95 2.25 2.55 5.95 3.50 8.25 1 2.25 2.45 5.60 3.25 7.50 0.85 1.85 2.15 4.85 2.95 6.75 2.75 6.50 4.45 10.40 5.95 13.85 1.95 4.45 5.30 12.20 6.85 15.75 0.65 1.50 2 4.65 3 7 1.80 4.15 3.25 7.50 6.25 14.50 0.85 1.95 2.15 5 2.95 6.90 2.40 5.40 5.50 12.65 6.80 15.60 5.60 13.05 8.45 19.45 8.65 19.25 0.10 -0.05 0.15 -42.15 0.10 -93.45 l-0.05 -93.30 18.25 0.10 18.25 0.15 0.10 110 c0.05 60.50 0.05 110.30 0 110.65 -0.05 0.45 -6.45 0.60 -30.25 0.60 l-30.20 0 -0.60 -1.60 c-0.30 -0.90 -1.35 -3.40 -2.30 -5.50 -0.95 -2.15 -2.50 -5.75 -3.50 -8 -1 -2.30 -2.55 -5.85 -3.45 -7.90 -0.95 -2.05 -2.60 -5.90 -3.75 -8.50 -1.15 -2.60 -2.70 -6.20 -3.50 -8 -0.80 -1.80 -2.35 -5.40 -3.50 -8 -1.15 -2.60 -2.80 -6.45 -3.70 -8.50 -0.95 -2.05 -2.35 -5.30 -3.20 -7.25 -0.85 -1.90 -2.40 -5.50 -3.50 -8 -1.10 -2.45 -2.80 -6.35 -3.80 -8.60 -1 -2.30 -2.60 -6 -3.60 -8.25 -1 -2.30 -2.70 -6.15 -3.80 -8.65 -1.10 -2.45 -2.65 -6.05 -3.50 -8 -0.85 -1.90 -2.25 -5.20 -3.20 -7.25 -0.90 -2.05 -2.55 -5.90 -3.70 -8.50 -1.15 -2.60 -2.70 -6.20 -3.50 -8 -0.80 -1.80 -2.35 -5.40 -3.50 -8 -1.15 -2.60 -2.80 -6.45 -3.70 -8.50 -0.95 -2.05 -2.35 -5.30 -3.20 -7.25 -0.85 -1.90 -2.40 -5.50 -3.50 -8 -2.70 -6.10 -5.40 -12.35 -6.95 -16 -0.70 -1.65 -1.90 -4.40 -2.70 -6.15 -0.80 -1.70 -1.45 -3.45 -1.45 -3.85 0 -0.40 -0.20 -0.75 -0.50 -0.75 -0.35 0 -0.50 31.50 -0.50 93.50 l0 93.50 -18.50 0 -18.50 0 0 -110.75z"/>
 </g>
 <g fill="#ffffff">
  <path d="M569.15 593.75 c-4.70 -1.30 -11.60 -5.45 -11.65 -7.05 0 -1.05 3 -4.70 3.90 -4.70 0.45 0 1.90 0.75 3.25 1.70 5.65 4.05 11.70 5.15 17 3.10 4.40 -1.65 7.30 -6.55 6.60 -11.10 -0.60 -4.15 -3.15 -6 -12.85 -9.40 -12.30 -4.25 -15.80 -8.25 -15.35 -17.35 0.25 -4.30 1.45 -7.10 4.55 -10.30 5.55 -5.70 16.65 -6.85 24.90 -2.60 1.50 0.75 3.30 1.85 4 2.40 l1.25 1 -1.15 2.30 c-0.60 1.25 -1.45 2.40 -1.90 2.60 -0.45 0.15 -2.60 -0.65 -5.05 -1.90 -4.05 -2.05 -4.50 -2.20 -8.10 -2.15 -7.20 0.15 -11.05 3.50 -11.05 9.55 0 2.05 0.25 2.50 2.40 4.65 2.05 2.05 3.25 2.65 9.55 4.95 3.95 1.45 8.25 3.30 9.60 4.10 2.30 1.35 2.45 1.35 2.45 0.45 0 -1.25 0.60 -1.25 1.65 -0.10 1.05 1.15 1.05 1.60 0.10 1.60 -1.05 0 -0.95 0.45 0.75 2.90 4.75 7.05 0.80 19.55 -7.55 23.85 -4.30 2.25 -12.05 2.90 -17.30 1.50z"/>
  <path d="M616.40 593.75 c-7.60 -2.10 -12.70 -8.55 -13.90 -17.70 -1.25 -9.30 1.85 -17.55 8.20 -21.75 7.30 -4.85 17.85 -4.25 23.45 1.40 3.25 3.25 5.35 8.75 5.35 14.05 0 1.70 -0.25 2.35 -0.95 2.75 -0.60 0.30 -6.30 0.50 -15 0.50 l-14.05 0 0 1.45 c0 0.80 0.45 2.95 1.05 4.80 1.30 4.25 4.55 7.85 7.95 8.75 3.85 1.05 8.85 0.40 13.20 -1.65 l3.80 -1.80 1.50 1.25 c1.85 1.60 1.85 2.15 0.15 3.80 -4.35 4.05 -14.05 6 -20.75 4.15z m16.10 -27.35 c0 -2.75 -2.10 -6.50 -4.50 -8.15 -2 -1.40 -2.50 -1.50 -6.30 -1.45 -3.85 0.05 -4.25 0.15 -6.50 1.75 -2.45 1.80 -4.35 4.75 -4.95 7.85 l-0.35 1.60 11.30 0 11.30 0 0 -1.60z"/>
  <path d="M660.40 593.75 c-7.60 -2.10 -12.70 -8.55 -13.90 -17.70 -1.25 -9.30 1.85 -17.55 8.20 -21.75 7.30 -4.85 17.85 -4.25 23.45 1.40 3.25 3.25 5.35 8.75 5.35 14.05 0 1.70 -0.25 2.35 -0.95 2.75 -0.60 0.30 -6.30 0.50 -15 0.50 l-14.05 0 0 1.45 c0 0.80 0.45 2.95 1.05 4.80 1.30 4.25 4.55 7.85 7.95 8.75 3.90 1.05 8.85 0.40 13.30 -1.70 l3.85 -1.85 1.45 1.40 c1.70 1.60 1.75 2.45 0.30 3.70 -4.80 4.10 -14.40 6.05 -21 4.20z m16.10 -27.35 c0 -2.75 -2.10 -6.50 -4.50 -8.15 -2 -1.40 -2.50 -1.50 -6.30 -1.45 -3.85 0.05 -4.25 0.15 -6.50 1.75 -2.45 1.80 -4.35 4.75 -4.95 7.85 l-0.35 1.60 11.30 0 11.30 0 0 -1.60z"/>
  <path d="M718.50 594.10 c-2.30 -0.65 -4.25 -2.15 -5.50 -4.25 -1.25 -2.10 -1.25 -2.20 -1.40 -16.95 l-0.20 -14.90 -2.60 0 c-3.10 0 -3.80 -0.55 -3.80 -3 l0 -1.85 3.40 -0.45 3.35 -0.45 1 -7 1 -7 2.40 -0.25 c1.30 -0.20 2.50 -0.20 2.60 -0.05 0.15 0.10 0.25 3.45 0.25 7.40 l0 7.15 6 0 6 0 0 2.75 0 2.75 -6 0 -6.05 0 0.15 14.05 0.15 14.05 1.40 1.20 c1.75 1.50 3.95 1.55 6.50 0.20 1 -0.55 1.95 -1 2.10 -1 0.30 0 2.75 3.60 2.75 4.05 0 0.20 -1.15 1.10 -2.55 2 -2.15 1.35 -3.05 1.65 -6.10 1.75 -2 0.10 -4.15 0 -4.85 -0.20z"/>
  <path d="M798.10 593.70 c-3.20 -0.85 -7.50 -3.60 -9.25 -5.85 -3.15 -4.15 -4.85 -9.65 -4.85 -15.65 0 -12.20 7.10 -20.30 18.35 -21.10 10.45 -0.70 17.95 5.95 18.55 16.60 0.20 3.40 0.10 4.05 -0.70 4.65 -0.70 0.50 -4 0.65 -14.80 0.65 l-13.90 0 0 1.90 c0 5.35 3 10.50 7.35 12.45 2.45 1.15 3.25 1.25 6.90 1.05 3.35 -0.25 4.75 -0.60 7.75 -2.05 4.05 -1.95 4.70 -1.90 6.25 0.50 l0.90 1.35 -1.70 1.45 c-5 4.25 -13.85 5.95 -20.85 4.05z m16.10 -28.05 c-0.45 -3.20 -2.25 -5.90 -5.10 -7.70 -2.20 -1.45 -2.55 -1.50 -6 -1.30 -2.80 0.20 -4.10 0.60 -5.80 1.65 -2.20 1.40 -4.45 4.40 -5 6.80 -0.15 0.70 -0.45 1.65 -0.60 2.10 -0.30 0.70 0.90 0.80 11.30 0.80 l11.55 0 -0.35 -2.35z"/>
  <path d="M902.40 593.80 c-2.75 -1 -4.25 -2.10 -5.90 -4.40 -2.75 -3.80 -3 -5.55 -3 -22.50 l0 -15.45 3.65 0.15 3.60 0.15 0.25 15.50 c0.25 14.35 0.30 15.65 1.25 17.20 1.60 2.75 3.35 3.75 6.95 3.95 2.70 0.20 3.65 0 5.90 -1.05 1.45 -0.70 3.40 -1.90 4.30 -2.70 l1.65 -1.40 0.10 -15.75 0.10 -15.75 3.65 -0.15 3.60 -0.15 0 21.30 0 21.25 -2.45 0 c-2.85 0 -4.05 -0.90 -4.05 -3 0 -3.05 -0.45 -3.15 -3.10 -0.80 -1.35 1.25 -3.70 2.70 -5.20 3.25 -3.20 1.20 -8.45 1.35 -11.30 0.35z"/>
  <path d="M949.65 593.95 c-2.25 -0.65 -5 -3.55 -5.60 -5.80 -0.35 -1.10 -0.55 -7.75 -0.55 -16 l0 -14.15 -2.70 0 c-3.25 0 -4.45 -0.90 -4.20 -3.20 0.15 -1.50 0.25 -1.55 3.50 -2 3.80 -0.50 3.40 0.20 4.40 -8.05 0.80 -6.40 0.95 -6.75 3.85 -6.75 l2.40 0 0 7.15 0 7.10 6.15 0.15 6.15 0.15 -0.15 2.60 -0.15 2.60 -6.15 0.15 -6.10 0.15 0.10 12.10 c0.05 6.70 0.15 13 0.30 14 0.45 3.95 4.35 5.60 8.05 3.30 1.90 -1.15 2.50 -0.85 4.20 2 l0.85 1.45 -2.80 1.65 c-2.35 1.30 -3.50 1.65 -6.40 1.75 -1.95 0.10 -4.30 -0.05 -5.15 -0.35z"/>
  <path d="M980.25 593.90 c-2.65 -0.95 -5.60 -3.45 -6.90 -5.85 -1.95 -3.50 -2.35 -7.45 -2.35 -22.65 l0 -13.90 3.70 0 3.70 0 0.20 15.40 c0.15 15.30 0.15 15.35 1.40 17.55 1.60 2.85 3.90 4.05 7.60 4.05 3.45 0 6.60 -1.25 9.35 -3.75 l2.05 -1.85 0 -15.70 0 -15.70 3.75 0 3.75 0 0 21.25 0 21.25 -2.70 0 c-3.15 0 -3.70 -0.45 -4.10 -3.70 l-0.35 -2.35 -1.55 1.45 c-2.35 2.15 -4.30 3.35 -7 4.30 -2.75 0.90 -8.25 1 -10.55 0.20z"/>
  <path d="M1063.40 593.55 c-3.60 -1.15 -5.85 -2.55 -8.15 -5.10 -6.95 -7.70 -7.40 -22.25 -1 -30.65 6.05 -7.95 20.45 -9.05 27.40 -2.10 3.25 3.25 5.35 8.75 5.35 14.10 0 1.95 -0.15 2.30 -1.30 2.70 -0.70 0.30 -7.30 0.50 -15.05 0.50 l-13.80 0 0.35 2.40 c0.80 6.10 3.85 10.80 8.05 12.40 3.65 1.35 9.20 0.80 13.95 -1.45 l3.80 -1.80 1.50 1.25 c1.85 1.60 1.85 2.15 0.15 3.80 -4.55 4.25 -14.50 6.10 -21.25 3.95z m16.60 -27.15 c0 -2.75 -2.10 -6.50 -4.50 -8.15 -2 -1.40 -2.50 -1.50 -6.30 -1.45 -3.85 0.05 -4.25 0.15 -6.50 1.75 -2.50 1.80 -4.40 4.80 -5 7.85 l-0.30 1.60 11.30 0 11.30 0 0 -1.60z"/>
  <path d="M1124.35 593.95 c-7.80 -1.85 -13.15 -8.25 -14.45 -17.30 -1.45 -10.10 2.65 -19.65 10.10 -23.40 7.85 -3.90 18.25 -2.50 24 3.25 7.25 7.25 7.85 22.55 1.25 31.20 -1.90 2.50 -6.05 5.15 -9.50 6.05 -3.20 0.80 -8.40 0.90 -11.40 0.20z m10.90 -6.40 c1.10 -0.50 2.50 -1.45 3.10 -2.10 5.25 -5.75 4.90 -21.05 -0.60 -25.90 -2.35 -2.05 -4.75 -2.70 -9 -2.45 -3.15 0.15 -4 0.40 -5.85 1.70 -3.75 2.65 -5.50 7.20 -5.45 14.35 0.05 10.20 4.20 15.35 12.30 15.35 2.35 0 4.15 -0.35 5.50 -0.95z"/>
  <path d="M1292.10 594 c-5.55 -1.30 -9.15 -8.75 -6.90 -14.15 2.10 -5.05 9.45 -8.40 20.45 -9.30 2.40 -0.25 4.50 -0.55 4.65 -0.70 0.20 -0.15 0.15 -2 -0.05 -4.05 -0.55 -6.20 -3.20 -8.80 -8.85 -8.80 -2.35 0 -3.50 0.35 -6.65 2 -4.70 2.50 -5.95 2.55 -7.25 0.40 -0.55 -0.90 -1 -1.75 -1 -1.90 0.05 -0.40 4.05 -3.25 6 -4.25 4.15 -2.15 12.15 -2.95 15.85 -1.60 2.95 1.10 5.85 3.60 7.30 6.20 1.95 3.60 2.40 8.50 2.25 23.40 l-0.15 12.50 -2.50 0 c-2.65 0 -3.35 -0.65 -4 -3.90 l-0.30 -1.40 -1.35 1.05 c-5.85 4.50 -11.45 5.95 -17.50 4.50z m12.65 -6.05 c1.10 -0.55 2.85 -1.65 3.90 -2.50 l1.85 -1.50 0 -4.55 0 -4.55 -4.15 0.35 c-7.65 0.60 -12.80 2.65 -14.20 5.50 -1.45 3.15 0.30 7.30 3.50 8.25 2.15 0.65 6.60 0.15 9.10 -1z"/>
  <path d="M1336.75 593.75 c-2.60 -0.95 -5.50 -3.35 -7 -5.80 -4.40 -6.95 -4.85 -19.40 -1 -27.30 1.70 -3.45 5.95 -7.30 9.65 -8.65 5.25 -2 12.85 -0.85 15.80 2.45 0.55 0.60 1.15 1.05 1.40 1.05 0.20 0 0.40 -5.15 0.40 -11.50 l0 -11.50 3.75 0 3.75 0 0 30.75 0 30.75 -2.70 0 c-3.20 0 -3.75 -0.50 -4.15 -3.95 l-0.30 -2.50 -2.30 2.05 c-3.45 3.10 -7.05 4.55 -11.55 4.75 -2.45 0.10 -4.45 -0.15 -5.75 -0.60z m13.25 -6.50 c0.95 -0.45 2.70 -1.80 3.90 -2.90 l2.10 -2.05 0 -10.30 0 -10.30 -1.50 -1.55 c-2.30 -2.35 -4.75 -3.30 -8.50 -3.30 -6.10 0 -9.70 3 -11.50 9.60 -0.85 3.15 -0.70 11.05 0.25 14.35 0.90 3.20 3.65 6.45 5.95 7.20 2.20 0.70 7.30 0.30 9.30 -0.75z"/>
  <path d="M1387.40 593.75 c-3.25 -0.90 -6.35 -2.80 -8.55 -5.20 -7.05 -7.80 -7.55 -22.30 -1.10 -30.75 3.35 -4.35 10.10 -7.10 16.50 -6.70 8.15 0.55 13.95 5.65 15.70 13.80 0.90 4.20 0.75 6.95 -0.40 7.60 -0.60 0.30 -6.30 0.50 -15 0.50 l-14.05 0 0 1.45 c0 0.80 0.45 2.95 1.05 4.80 1.30 4.25 4.55 7.85 7.95 8.75 3.85 1.05 8.85 0.40 13.20 -1.65 l3.80 -1.80 1.50 1.25 c1.85 1.60 1.85 2.15 0.15 3.80 -4.35 4.05 -14.05 6 -20.75 4.15z m16.10 -27.35 c0 -2.75 -2.10 -6.50 -4.50 -8.15 -2 -1.40 -2.50 -1.50 -6.30 -1.45 -3.85 0.05 -4.25 0.15 -6.50 1.75 -2.45 1.80 -4.35 4.75 -4.95 7.85 l-0.35 1.60 11.30 0 11.30 0 0 -1.60z"/>
  <path d="M740.50 563.25 l0 -30.75 3.75 0 3.75 0 0 12.35 0 12.35 1.40 -1.30 c2.40 -2.20 4.30 -3.30 7.30 -4.15 6.10 -1.80 12.40 -0.10 15.65 4.15 2.90 3.85 3.15 5.55 3.15 22.70 l0 15.45 -3.60 -0.15 -3.65 -0.15 -0.25 -15.50 c-0.25 -14.35 -0.30 -15.65 -1.25 -17.20 -1.45 -2.50 -3.20 -3.55 -6.35 -3.90 -3.65 -0.35 -7.15 0.80 -10.10 3.40 l-2.30 2.05 0 15.70 0 15.70 -3.75 0 -3.75 0 0 -30.75z"/>
  <path d="M848 564 l0 -30 18.50 0 18.50 0 0 3.25 0 3.25 -14.35 0.10 -14.40 0.15 -0.15 10.35 -0.10 10.40 12.35 0.10 12.40 0.15 0.15 3.10 0.15 3.15 -12.40 0.10 -12.40 0.15 -0.15 12.90 -0.10 12.85 -4 0 -4 0 0 -30z"/>
  <path d="M1019 572.75 l0 -21.25 2.45 0 c3.05 0 4.05 0.85 4.10 3.65 0.05 1.15 0.20 2.65 0.40 3.35 l0.35 1.20 1.05 -1.70 c1.20 -1.95 3.70 -4.40 5.85 -5.70 1.85 -1.20 7.10 -1.60 9.50 -0.80 l1.90 0.60 -0.35 2.60 c-0.55 3.90 -0.95 4.40 -3.15 3.95 -1 -0.20 -3.10 -0.35 -4.60 -0.30 -3.40 0.15 -6 1.85 -8.35 5.35 l-1.65 2.40 0 13.95 0 13.95 -3.75 0 -3.75 0 0 -21.25z"/>
  <path d="M1161 576.05 l0 -18 -2.35 -0.30 c-3.45 -0.50 -4.65 -1.40 -4.65 -3.50 l0 -1.70 3.40 -0.15 3.35 -0.15 0.30 -4.75 c0.20 -4 0.50 -5.20 1.70 -7.45 2.30 -4.20 5.60 -6.25 11 -6.75 1.65 -0.20 3.80 -0.15 4.75 0.10 1.60 0.35 1.75 0.55 1.90 2.30 0.25 2.65 -0.50 3.30 -3.75 3.30 -5.65 0 -8.10 2.70 -8.55 9.40 l-0.25 4.10 6.35 0 6.35 0 -0.15 2.65 -0.15 2.60 -5.85 0.15 -5.90 0.15 -0.10 17.85 -0.15 17.85 -3.60 0.15 -3.65 0.15 0 -18z"/>
  <path d="M1218 567.55 l0 -26.55 -9.60 -0.10 -9.65 -0.15 -0.15 -3.35 -0.15 -3.40 23.55 0 23.50 0 0 3.50 0 3.50 -9.50 0 -9.50 0 -0.05 25.65 c-0.05 14.05 -0.10 25.95 -0.15 26.35 -0.05 0.60 -0.95 0.80 -4.15 0.90 l-4.15 0.15 0 -26.50z"/>
  <path d="M1253 572.75 l0 -21.25 2.45 0 c3.05 0 4.05 0.85 4.10 3.65 0.05 1.15 0.20 2.65 0.40 3.35 l0.35 1.20 1.05 -1.70 c1.20 -1.95 3.70 -4.40 5.85 -5.70 1.95 -1.20 6.80 -1.60 9.35 -0.80 l2 0.70 -0.30 2.50 c-0.55 3.90 -0.95 4.40 -3.15 3.95 -1 -0.20 -3.10 -0.35 -4.60 -0.30 -3.40 0.15 -6 1.85 -8.35 5.35 l-1.65 2.40 0 13.95 0 13.95 -3.75 0 -3.75 0 0 -21.25z"/>
  <path d="M623.95 476.65 c-0.70 -0.80 -2.25 -2.65 -3.40 -4.15 -1.20 -1.50 -2.70 -3.05 -3.35 -3.40 -1.10 -0.55 -1.20 -0.90 -0.95 -2.25 0.50 -2.20 1.95 -3.65 4.55 -4.40 2.20 -0.65 2.20 -0.70 2.20 -2.95 0 -2 -0.35 -2.75 -2.55 -5.60 l-2.50 -3.30 0.85 -9.70 c1.30 -15.30 1.40 -17.95 0.65 -18.45 -0.55 -0.35 -0.55 -0.45 0.10 -0.45 1.05 0 1.35 -1.55 1.70 -9.25 0.15 -3.30 0.50 -7.45 0.75 -9.25 0.25 -1.80 0.70 -6.40 1.05 -10.25 1.55 -19.45 1.65 -20.25 3 -20.25 0.85 0 0.95 0.40 0.95 4.65 -0.05 2.50 -0.25 6.20 -0.55 8.10 -0.90 6 -0.90 6 0.90 6.15 1.85 0.20 1.85 -0.10 0.45 8.50 -0.55 3.45 -0.55 4.10 0 4.10 0.40 0 0.75 -0.40 0.75 -0.85 0.05 -0.50 0.15 -1.55 0.25 -2.40 0.10 -0.80 0.40 -5.20 0.70 -9.75 1.25 -19.30 1.75 -26.40 3 -39.25 0.30 -2.75 0.55 -6.30 0.60 -7.85 0.10 -3.15 0.20 -3.40 1.65 -4.20 0.55 -0.30 1.35 -1.55 1.75 -2.80 0.40 -1.25 1.15 -2.60 1.60 -3.05 1.25 -1.25 4.10 -1.05 5.70 0.30 1.15 1 1.40 1.70 1.55 4.15 0.35 4.85 0.50 5.20 2.15 5.20 0.80 0 2.45 -0.65 3.65 -1.50 1.25 -0.80 2.55 -1.50 2.95 -1.50 1.95 0 2.35 2.90 1.40 9.40 -0.25 1.85 -0.70 6.40 -1 10.10 -0.95 13.65 -2.10 26.80 -3.05 34.75 -0.25 2.50 -0.70 7.55 -1 11.25 -0.75 11.35 -1.45 19.05 -1.95 23.25 -0.30 2.20 -0.50 4.80 -0.50 5.85 l0 1.90 2.65 -0.95 c4.40 -1.55 14.90 -4.15 20.15 -5 4.15 -0.70 10.50 -1.80 17.20 -3 3.15 -0.55 6.55 -1.05 7.55 -1.05 0.95 0 1.95 -0.20 2.25 -0.45 0.25 -0.25 2.45 -0.55 4.85 -0.75 3.70 -0.25 4.40 -0.20 4.70 0.50 0.15 0.40 0.10 0.95 -0.20 1.25 -0.40 0.40 -5.45 1.45 -12.15 2.45 -5.15 0.80 -11.25 1.95 -17.25 3.25 -3.30 0.70 -7.30 1.50 -8.95 1.80 -1.60 0.25 -3.55 0.80 -4.35 1.20 -0.75 0.40 -1.75 0.75 -2.20 0.75 -0.75 0 -1 0.60 -0.45 1.10 0.15 0.15 1.05 0.05 2 -0.25 1.45 -0.45 1.80 -0.40 2.40 0.40 0.60 0.85 0.90 0.90 2.60 0.40 1.10 -0.35 3.75 -0.95 5.95 -1.45 2.20 -0.45 5.25 -1.15 6.80 -1.50 1.55 -0.40 3.45 -0.70 4.15 -0.70 0.70 0 1.70 -0.20 2.20 -0.45 1.10 -0.55 9.15 -1.90 12.05 -2 1.40 -0.05 2.50 0.20 3.05 0.70 0.80 0.70 1.20 0.70 4.45 -0.05 2.80 -0.60 5.10 -0.75 10.20 -0.50 3.65 0.15 7.55 0.40 8.75 0.60 l2.15 0.30 -1.85 -2.90 c-1.70 -2.65 -1.75 -2.90 -0.95 -3.50 0.90 -0.70 0.90 -2.55 -0.20 -10.20 -0.60 -4 -0.35 -8.20 0.70 -12.25 2.20 -8.55 9.85 -21.65 22.20 -38.25 4.10 -5.50 4.30 -5.70 4.45 -4.15 0.15 1.25 -0.45 2.40 -2.80 5.75 -3.90 5.45 -9.55 15.10 -12 20.55 -0.10 0.20 0.05 0.35 0.40 0.35 0.30 0 0.40 -0.25 0.25 -0.50 -0.15 -0.30 -0.10 -0.50 0.15 -0.50 0.20 0 0.90 -0.90 1.55 -2 5.75 -10.25 16.40 -23.70 29 -36.60 3.70 -3.80 6.55 -6.90 6.35 -6.90 -0.20 0 -1.95 0.90 -3.90 2 -3.85 2.20 -5.75 2.45 -5.50 0.75 0.60 -3.70 6.45 -6.60 18.35 -9 2.20 -0.45 5 -1.05 6.25 -1.35 1.25 -0.25 4.60 -0.60 7.50 -0.75 11.35 -0.55 25.05 3.25 35.10 9.75 3 1.95 3.40 2.60 2.15 3.60 -0.40 0.35 -0.75 0.90 -0.75 1.20 0 0.30 1.50 2.75 3.30 5.45 3.65 5.50 3.80 6.65 0.85 6.20 -1 -0.20 -2.05 -0.65 -2.25 -1.10 -1 -1.70 -1.50 -0.70 -1.25 2.40 0.35 4.15 1.20 10.90 1.80 14.60 0.30 1.65 0.90 5.50 1.35 8.60 0.70 4.55 1.05 5.60 1.80 5.80 0.50 0.15 0.90 0 0.90 -0.40 0 -0.95 2 -3.25 2.85 -3.25 0.65 0 0.75 0.85 0.50 6.40 -0.10 3.50 -0.50 7.15 -0.85 8.10 -4.95 13.70 -8.30 21.75 -14 33.25 -0.80 1.65 -1.25 3.10 -1 3.15 0.90 0.30 0.55 1.15 -1.70 4 -6.25 8 -20.80 20.20 -31.30 26.20 -8.50 4.85 -29.30 3.30 -41.85 -3.05 -9.25 -4.70 -17.05 -13.35 -20.70 -22.90 -0.65 -1.70 -1.45 -3.45 -1.80 -3.95 -0.55 -0.75 -0.70 -0.75 -2.05 0.40 -1.90 1.60 -9.70 4.40 -12.25 4.40 -0.75 0 -1.35 0.25 -1.35 0.55 0 0.25 -0.20 0.40 -0.45 0.20 -0.50 -0.25 -1.30 0.65 -0.95 1.05 0.15 0.10 1.45 0.40 2.90 0.70 2.20 0.40 2.80 0.35 3.50 -0.25 1.35 -1.20 1.55 -0.90 1.40 2.10 -0.15 2.70 -0.25 2.90 -1.65 3.25 -0.80 0.20 -3.50 0.85 -6 1.45 -6.30 1.50 -10.05 2.40 -13.50 3.20 -1.65 0.35 -5.80 1.35 -9.25 2.20 -12.40 3.10 -14.80 3.70 -17.50 4.30 -1.50 0.30 -3.10 0.70 -3.50 0.85 -0.40 0.20 -1.55 0.45 -2.50 0.60 -1.70 0.30 -6.75 2.10 -15.50 5.60 -23.70 9.35 -26.55 10.10 -29.05 7.35z m150.65 -31 c10.15 -4.05 20.95 -14.85 32.25 -32.30 3.75 -5.75 7.35 -13.85 10 -22.35 1.70 -5.50 1.80 -6.15 2.05 -15.05 0.25 -9.30 0.25 -9.30 -0.95 -10.40 -1.90 -1.75 -4.80 -2.90 -9.90 -3.75 -5.85 -1 -7.25 -1 -8.05 -0.05 -0.70 0.85 -3 1.05 -3 0.25 0 -0.80 -1.20 -0.55 -3.75 0.80 -1.30 0.70 -2.70 1.15 -3.10 1 -0.55 -0.20 -0.55 -0.05 -0.15 0.70 0.30 0.55 0.40 1.25 0.25 1.50 -0.65 1.05 -11.70 10 -12.35 10 -0.35 0 -1.75 0.55 -3.15 1.20 -7.40 3.45 -14.10 16.10 -21.80 41.20 -1.30 4.35 -1.50 5.55 -1.20 8 0.75 5.85 4.55 12.05 10.65 17.20 3.35 2.85 3.35 2.85 6.70 2.90 2.05 0 4.20 -0.35 5.50 -0.85z m-60.70 -1.40 c-0.15 -0.15 -0.65 -0.10 -1.10 0.05 -0.70 0.25 -0.75 0.45 -0.20 0.75 0.65 0.40 1.80 -0.30 1.30 -0.80z m-61.75 -2.55 c0.75 -0.20 1.35 -0.65 1.35 -1 0 -0.95 -0.35 -0.85 -3 0.60 -1.40 0.80 -1.80 1.15 -1 0.95 0.70 -0.15 1.85 -0.40 2.65 -0.55z m4.85 -2 c0 -0.35 -0.40 -0.55 -0.85 -0.45 -0.50 0.10 -1.25 0.20 -1.65 0.20 -0.65 0.05 -0.65 0.15 -0.05 0.50 1 0.65 2.55 0.45 2.55 -0.25z m75 -17.05 c0 -1.25 -0.10 -2.20 -0.20 -2.10 -0.40 0.50 -0.65 4.45 -0.25 4.45 0.25 0 0.45 -1.05 0.45 -2.35z m-105 -1 c0 -0.80 0.15 -1.95 0.30 -2.65 0.25 -1.20 0.25 -1.25 -0.55 -0.25 -0.45 0.55 -0.70 1.40 -0.55 1.90 0.10 0.45 0.05 0.85 -0.15 0.85 -0.20 0 -0.40 0.35 -0.40 0.75 0 0.40 0.30 0.75 0.70 0.75 0.40 0 0.65 -0.55 0.65 -1.35z m105 -5.40 c0 -2.05 -0.15 -3.75 -0.35 -3.75 -0.25 0 -0.35 1.70 -0.25 3.75 0.10 2.05 0.25 3.75 0.40 3.75 0.10 0 0.20 -1.70 0.20 -3.75z m-104.10 -4.75 c0.15 -4.30 0.05 -5 -0.60 -5 -0.45 0 -0.80 0.15 -0.80 0.40 0 0.20 -0.25 1.90 -0.50 3.75 -0.45 2.95 -0.40 3.55 0.35 4.60 0.50 0.70 1 1.25 1.15 1.25 0.15 0 0.35 -2.25 0.40 -5z m191.80 -2.60 c1.25 -3.10 2.30 -5.95 2.30 -6.35 0 -1.50 -1.25 -4.10 -1.90 -3.95 -0.60 0.15 -2.75 4.85 -5.15 11.40 -1.80 4.75 -1.80 4.50 0.40 4.50 l2 0 2.35 -5.60z m11.95 1.10 c0.95 -3.35 1.05 -5 0.40 -5 -0.65 0 -2.05 4.35 -2.05 6.35 0 2.55 0.75 1.95 1.65 -1.35z"/>
  <path d="M538 470.50 c-2.60 -0.50 -6.10 -1.40 -7.75 -1.95 -1.65 -0.60 -3.30 -1.05 -3.65 -1.05 -0.40 0 -2.85 -1.15 -5.45 -2.60 -8.80 -4.90 -15.05 -11.90 -19.25 -21.65 -1.05 -2.45 -3.40 -6.70 -5.25 -9.40 -3.05 -4.50 -3.25 -5 -2.65 -6.10 0.70 -1.30 0.35 -8.25 -0.60 -12.10 -0.40 -1.60 -0.30 -3.25 0.35 -7.20 0.50 -2.85 1.05 -5.50 1.30 -5.95 0.20 -0.40 1.10 -2.30 1.95 -4.25 3.45 -7.80 9.95 -18.20 19.15 -30.65 3.10 -4.20 4.65 -5.95 4.95 -5.50 0.55 0.95 0.05 2.20 -2.55 5.85 -3.30 4.65 -7.55 11.70 -7.55 12.55 0 0.90 2.75 -1.70 4.15 -4 2.90 -4.75 14.15 -18.05 22.95 -27.25 3.20 -3.30 5.75 -6.05 5.65 -6.15 -0.05 -0.05 -1.70 0.80 -3.65 1.90 -1.95 1.10 -4.05 2 -4.60 2 -1.55 0 -1.30 -2.15 0.50 -3.90 1.60 -1.60 7.30 -4.20 11.30 -5.15 1.35 -0.30 2.80 -0.75 3.20 -0.95 0.40 -0.20 1.15 -0.30 1.65 -0.20 0.45 0.05 0.85 -0.20 0.85 -0.60 0 -0.75 1.30 -1 1.60 -0.25 0.10 0.20 1.60 0.05 3.40 -0.35 4.05 -0.95 17.30 -1.10 20.50 -0.25 1.25 0.30 4.15 1.10 6.50 1.70 4.70 1.15 10.90 3.90 16.10 7.05 3.55 2.10 3.85 2.55 2.65 4.10 -0.85 1.15 -0.55 1.90 3.55 7.90 2.15 3.15 2.65 4.15 2.10 4.45 -1.05 0.60 -3.30 0.20 -4.35 -0.75 -1.40 -1.25 -1.65 -0.95 -1.40 1.55 1.05 9.55 1.35 11.95 2.10 16.40 0.45 2.75 1.10 7.65 1.50 10.90 0.80 6.30 1.45 8.55 1.95 6.35 0.15 -0.70 0.40 -2.30 0.55 -3.55 0.30 -2.50 1.70 -4.25 3 -3.80 0.55 0.25 0.75 1.10 0.75 3.70 0 4.95 -1.10 10 -3.90 17.65 -2.70 7.40 -2.85 7.75 -8.85 20.60 -3.05 6.50 -3.95 8.90 -3.45 9 0.55 0.10 0.45 0.60 -0.55 2 -0.70 1 -1.25 2.25 -1.25 2.75 0 1.15 -0.90 2.15 -1.95 2.15 -0.40 0 -2.85 2.15 -5.50 4.70 -5.65 5.55 -12.60 11.10 -20.30 16.05 -4.70 3.05 -6.10 3.70 -9.50 4.40 -5.15 1.10 -13.95 1 -20.25 -0.15z m7.15 -26 c7.35 -3.70 13 -8.75 20.95 -18.75 5.35 -6.70 13.40 -18.95 13.40 -20.35 0 -0.40 0.20 -0.90 0.40 -1.15 0.55 -0.65 2.75 -6.15 4.05 -10 2.75 -8.20 3.05 -10.10 3.05 -19.10 0 -7.90 -0.10 -8.75 -0.95 -9.60 -2.15 -2.15 -7.25 -3.75 -13.95 -4.35 -2.75 -0.25 -3.50 -0.20 -4.05 0.50 -0.80 0.95 -1.70 1 -2.95 0.25 -0.70 -0.45 -1.45 -0.30 -3.55 0.80 -1.45 0.70 -2.95 1.20 -3.35 1.05 -0.60 -0.20 -0.60 -0.10 -0.20 0.75 0.45 0.75 0.40 1.20 -0.10 1.80 -1.40 1.70 -11.20 9.65 -11.90 9.65 -1.55 0 -5.80 2.45 -7.60 4.30 -3.70 3.95 -8.70 13.05 -11.55 20.95 -2.55 7.05 -4.25 12.10 -5.85 17.30 -1.90 6.40 -1.80 8.30 1 14.20 2.15 4.55 4.95 8 9.20 11.40 2.85 2.30 3 2.35 6.45 2.35 3.05 0 3.95 -0.25 7.50 -2z m-45.60 -32.15 c-0.55 -0.55 -0.70 11.55 -0.15 12.35 0.20 0.30 0.40 -2.25 0.50 -5.65 0.05 -3.45 -0.10 -6.45 -0.35 -6.70z m85.95 2 c0 -0.05 1 -2.45 2.25 -5.30 2.40 -5.50 2.55 -6.50 1.70 -9 -1.10 -3.10 -1.75 -2.05 -6.15 9.25 -1 2.50 -1.80 4.70 -1.80 4.90 0 0.15 0.90 0.30 2 0.30 1.10 0 2 -0.05 2 -0.15z m14.20 -4.05 c0.85 -2.90 1.05 -5.30 0.40 -5.30 -0.55 0 -2.10 4.65 -2.10 6.45 0 2.40 0.85 1.85 1.70 -1.15z m-89.55 -26.90 c0.40 -1.50 -0.60 -0.45 -1.70 1.75 l-1 2.10 1.25 -1.45 c0.65 -0.80 1.35 -1.90 1.45 -2.40z"/>
  <path d="M607.60 373.15 l0.15 -4.40 1.90 -0.15 1.85 -0.15 0 4.50 0 4.55 -2 0 -2.05 0 0.15 -4.35z"/>
  <path d="M839.50 373 l0 -4.50 2 0 2 0 0 4.50 0 4.50 -2 0 -2 0 0 -4.50z"/>
 </g>
 <g fill="#cccfd6">
  <path d="M112 684.75 c-1.30 -1.60 0.65 -4.05 2.40 -2.95 1.70 1.10 1.10 3.70 -0.90 3.70 -0.50 0 -1.15 -0.35 -1.50 -0.75z"/>
  <path d="M232 684.75 c-1.30 -1.60 0.65 -4.05 2.40 -2.95 1.70 1.10 1.10 3.70 -0.90 3.70 -0.50 0 -1.15 -0.35 -1.50 -0.75z"/>
  <path d="M352 684.75 c-1.30 -1.60 0.65 -4.05 2.40 -2.95 1.70 1.10 1.10 3.70 -0.90 3.70 -0.50 0 -1.15 -0.35 -1.50 -0.75z"/>
  <path d="M472 684.75 c-1.30 -1.60 0.65 -4.05 2.40 -2.95 1.70 1.10 1.10 3.70 -0.90 3.70 -0.50 0 -1.15 -0.35 -1.50 -0.75z"/>
  <path d="M592 684.75 c-1.30 -1.60 0.65 -4.05 2.40 -2.95 1.70 1.10 1.10 3.70 -0.90 3.70 -0.50 0 -1.15 -0.35 -1.50 -0.75z"/>
  <path d="M712 684.75 c-1.30 -1.60 0.65 -4.05 2.40 -2.95 1.70 1.10 1.10 3.70 -0.90 3.70 -0.50 0 -1.15 -0.35 -1.50 -0.75z"/>
  <path d="M832 684.75 c-1.30 -1.60 0.65 -4.05 2.40 -2.95 1.70 1.10 1.10 3.70 -0.90 3.70 -0.50 0 -1.15 -0.35 -1.50 -0.75z"/>
  <path d="M952 684.75 c-1.30 -1.60 0.65 -4.05 2.40 -2.95 1.70 1.10 1.10 3.70 -0.90 3.70 -0.50 0 -1.15 -0.35 -1.50 -0.75z"/>
  <path d="M1072 684.75 c-1.30 -1.60 0.65 -4.05 2.40 -2.95 1.70 1.10 1.10 3.70 -0.90 3.70 -0.50 0 -1.15 -0.35 -1.50 -0.75z"/>
  <path d="M1192 684.75 c-1.30 -1.60 0.65 -4.05 2.40 -2.95 1.70 1.10 1.10 3.70 -0.90 3.70 -0.50 0 -1.15 -0.35 -1.50 -0.75z"/>
  <path d="M1312 684.75 c-1.30 -1.60 0.65 -4.05 2.40 -2.95 1.70 1.10 1.10 3.70 -0.90 3.70 -0.50 0 -1.15 -0.35 -1.50 -0.75z"/>
  <path d="M1432 684.75 c-1.30 -1.60 0.65 -4.05 2.40 -2.95 1.70 1.10 1.10 3.70 -0.90 3.70 -0.50 0 -1.15 -0.35 -1.50 -0.75z"/>
  <path d="M591.80 565.60 c-0.60 -0.55 -0.30 -3 0.45 -3.60 1.55 -1.30 4.05 0.65 2.95 2.35 -0.55 0.90 -2.90 1.75 -3.40 1.25z"/>
  <path d="M112 564.75 c-1.30 -1.60 0.65 -4.05 2.40 -2.95 1.70 1.10 1.10 3.70 -0.90 3.70 -0.50 0 -1.15 -0.35 -1.50 -0.75z"/>
  <path d="M232 564.75 c-1.30 -1.60 0.65 -4.05 2.40 -2.95 1.70 1.10 1.10 3.70 -0.90 3.70 -0.50 0 -1.15 -0.35 -1.50 -0.75z"/>
  <path d="M352 564.75 c-1.30 -1.60 0.65 -4.05 2.40 -2.95 1.70 1.10 1.10 3.70 -0.90 3.70 -0.50 0 -1.15 -0.35 -1.50 -0.75z"/>
  <path d="M472 564.75 c-1.30 -1.60 0.65 -4.05 2.40 -2.95 1.70 1.10 1.10 3.70 -0.90 3.70 -0.50 0 -1.15 -0.35 -1.50 -0.75z"/>
  <path d="M832 564.75 c-1.30 -1.60 0.65 -4.05 2.40 -2.95 1.70 1.10 1.10 3.70 -0.90 3.70 -0.50 0 -1.15 -0.35 -1.50 -0.75z"/>
  <path d="M952 564.75 c-1.30 -1.60 0.65 -4.05 2.40 -2.95 1.70 1.10 1.10 3.70 -0.90 3.70 -0.50 0 -1.15 -0.35 -1.50 -0.75z"/>
  <path d="M1072 564.75 c-1.30 -1.60 0.65 -4.05 2.40 -2.95 1.70 1.10 1.10 3.70 -0.90 3.70 -0.50 0 -1.15 -0.35 -1.50 -0.75z"/>
  <path d="M1192 564.75 c-1.30 -1.60 0.65 -4.05 2.40 -2.95 1.70 1.10 1.10 3.70 -0.90 3.70 -0.50 0 -1.15 -0.35 -1.50 -0.75z"/>
  <path d="M1432 564.75 c-1.30 -1.60 0.65 -4.05 2.40 -2.95 1.70 1.10 1.10 3.70 -0.90 3.70 -0.50 0 -1.15 -0.35 -1.50 -0.75z"/>
  <path d="M761.80 458.75 c-0.55 -0.40 -0.75 -0.75 -0.50 -0.75 0.30 0 0.95 0.35 1.50 0.75 0.50 0.40 0.75 0.70 0.45 0.70 -0.25 0 -0.95 -0.30 -1.45 -0.70z"/>
  <path d="M758.55 456.65 c-0.95 -0.60 -1.40 -1.15 -1 -1.15 0.80 0 3.30 1.85 2.95 2.15 -0.15 0.10 -1 -0.35 -1.95 -1z"/>
  <path d="M526.25 456.45 c-2 -1.25 -0.75 -1.25 1.35 0.05 0.90 0.55 1.30 1 0.90 0.95 -0.40 0 -1.40 -0.45 -2.25 -1z"/>
  <path d="M112 444.75 c-1.30 -1.60 0.65 -4.05 2.40 -2.95 1.70 1.10 1.10 3.70 -0.90 3.70 -0.50 0 -1.15 -0.35 -1.50 -0.75z"/>
  <path d="M352 444.75 c-1.30 -1.60 0.65 -4.05 2.40 -2.95 1.70 1.10 1.10 3.70 -0.90 3.70 -0.50 0 -1.15 -0.35 -1.50 -0.75z"/>
  <path d="M472.15 445.20 c-0.35 -0.15 -0.65 -0.80 -0.65 -1.45 0 -2.20 2.50 -3 3.70 -1.10 1 1.60 -1.10 3.35 -3.05 2.55z"/>
  <path d="M594.10 444.10 c0.75 -1 1.20 -1.20 1.30 -0.75 0.25 0.90 -0.80 2.15 -1.75 2.15 -0.55 0 -0.40 -0.40 0.45 -1.40z"/>
  <path d="M713.20 444.90 c-0.20 -0.35 -0.15 -0.40 0.20 -0.20 0.35 0.20 0.60 0.10 0.60 -0.15 0 -0.30 0.20 -0.55 0.50 -0.55 0.25 0 0.35 0.35 0.20 0.75 -0.35 0.90 -1 0.95 -1.50 0.15z"/>
  <path d="M832 444.75 c-1.30 -1.60 0.65 -4.05 2.40 -2.95 1.70 1.10 1.10 3.70 -0.90 3.70 -0.50 0 -1.15 -0.35 -1.50 -0.75z"/>
  <path d="M1072 444.75 c-1.30 -1.60 0.65 -4.05 2.40 -2.95 1.70 1.10 1.10 3.70 -0.90 3.70 -0.50 0 -1.15 -0.35 -1.50 -0.75z"/>
  <path d="M1312 444.75 c-1.30 -1.60 0.65 -4.05 2.40 -2.95 1.70 1.10 1.10 3.70 -0.90 3.70 -0.50 0 -1.15 -0.35 -1.50 -0.75z"/>
  <path d="M1432 444.75 c-1.30 -1.60 0.65 -4.05 2.40 -2.95 1.70 1.10 1.10 3.70 -0.90 3.70 -0.50 0 -1.15 -0.35 -1.50 -0.75z"/>
  <path d="M653.50 440.25 c0 -0.65 0.20 -0.70 1 -0.25 0.55 0.30 1 0.65 1 0.75 0 0.15 -0.45 0.25 -1 0.25 -0.55 0 -1 -0.35 -1 -0.75z"/>
  <path d="M657 439.50 c0 -0.30 -0.25 -0.40 -0.60 -0.20 -0.30 0.20 -0.40 0.15 -0.25 -0.15 0.45 -0.70 2.80 -1.10 3.15 -0.55 0.15 0.25 0.60 0.05 1 -0.45 0.60 -0.80 0.75 -0.80 1.15 -0.15 0.60 0.90 0.10 1.25 -2.55 1.70 -1.25 0.25 -1.90 0.15 -1.90 -0.20z"/>
  <path d="M625.50 427 c0 -3.35 0.15 -4 0.80 -4 0.70 0 0.80 0.40 0.50 2.30 -0.15 1.30 -0.30 3.10 -0.30 4 0 0.95 -0.20 1.70 -0.50 1.70 -0.30 0 -0.50 -1.65 -0.50 -4z"/>
  <path d="M731 418.50 c0 -3.10 0.10 -5.55 0.25 -5.40 0.35 0.35 0.40 10.40 0.05 10.80 -0.15 0.15 -0.30 -2.30 -0.30 -5.40z"/>
  <path d="M807.50 421.25 c0.65 -0.70 1.25 -1.25 1.35 -1.25 0.45 0 -1.65 2.45 -2.05 2.50 -0.25 0 0.05 -0.55 0.70 -1.25z"/>
  <path d="M627.45 406.65 c-0.55 -0.15 -0.75 -0.55 -0.60 -1.20 0.40 -1.40 1.65 -1.20 1.65 0.30 0 0.70 -0.05 1.20 -0.10 1.20 -0.10 -0.05 -0.50 -0.15 -0.95 -0.30z"/>
  <path d="M733 401.55 c0 -1.20 2 -6.05 2.55 -6.05 0.20 0 0.20 0.60 -0.05 1.40 -0.25 0.75 -0.70 2.30 -1 3.50 -0.55 2.15 -1.50 2.90 -1.50 1.15z"/>
  <path d="M501.80 400.60 c-0.40 -0.70 1.60 -6.10 2.30 -6.10 0.30 0 0.35 0.35 0.15 0.90 -0.20 0.45 -0.60 1.75 -0.90 2.85 -0.55 2.25 -1.10 3.05 -1.55 2.35z"/>
  <path d="M748.60 397.20 c0.15 -0.25 0.85 -1.70 1.55 -3.30 0.70 -1.55 1.55 -2.95 1.80 -3.15 0.30 -0.15 0.55 -0.80 0.60 -1.40 0 -0.60 0.15 -0.85 0.25 -0.50 0.30 0.70 -3.05 7.95 -3.90 8.45 -0.30 0.20 -0.45 0.15 -0.30 -0.10z"/>
  <path d="M517.40 396.75 c-0.15 -0.30 0.45 -1.95 1.40 -3.75 0.90 -1.80 1.65 -3 1.70 -2.65 0 0.35 -0.40 1.35 -0.90 2.25 -0.50 0.90 -1.15 2.30 -1.45 3.15 -0.25 0.80 -0.60 1.25 -0.75 1z"/>
  <path d="M840.10 395.15 c-0.85 -1.50 -0.80 -4.15 0.10 -4.15 1 0 1.15 0.40 0.80 3 -0.25 2.10 -0.30 2.15 -0.90 1.15z"/>
  <path d="M504 393.75 c0 -0.75 1.10 -2.25 1.65 -2.25 0.45 0 0.40 0.15 -0.05 0.45 -0.35 0.20 -0.60 0.70 -0.50 1.05 0.10 0.35 -0.15 0.75 -0.45 0.85 -0.35 0.15 -0.65 0.10 -0.65 -0.10z"/>
  <path d="M737 391.60 c0 -0.25 0.35 -0.85 0.75 -1.40 0.75 -0.95 1 -0.40 0.45 1 -0.30 0.85 -1.20 1.10 -1.20 0.40z"/>
  <path d="M505.50 390.75 c0 -0.65 1.75 -3.75 2.10 -3.75 0.25 0 0.35 -0.20 0.20 -0.40 -0.15 -0.25 0.05 -0.45 0.35 -0.45 0.45 0 0.20 0.85 -0.60 2.45 -1.10 2 -2.05 3.05 -2.05 2.15z"/>
  <path d="M510 383.55 c0 -0.35 -0.25 -0.45 -0.55 -0.25 -0.35 0.20 -0.20 -0.35 0.35 -1.20 0.50 -0.85 1 -1.45 1.15 -1.35 0.10 0.15 0.70 -0.15 1.25 -0.60 1.05 -0.90 1.05 -0.90 0.20 0.15 -0.50 0.55 -0.90 1.25 -0.90 1.50 -0.05 0.70 -1.50 2.45 -1.50 1.75z"/>
  <path d="M553 336 c0 -0.25 0.35 -0.50 0.75 -0.50 0.40 0 0.75 0.25 0.75 0.50 0 0.30 -0.35 0.50 -0.75 0.50 -0.40 0 -0.75 -0.20 -0.75 -0.50z"/>
  <path d="M112 324.75 c-1.30 -1.60 0.65 -4.05 2.40 -2.95 1.70 1.10 1.10 3.70 -0.90 3.70 -0.50 0 -1.15 -0.35 -1.50 -0.75z"/>
  <path d="M472 324.75 c-1.30 -1.60 0.65 -4.05 2.40 -2.95 1.70 1.10 1.10 3.70 -0.90 3.70 -0.50 0 -1.15 -0.35 -1.50 -0.75z"/>
  <path d="M592 324.75 c-1.30 -1.60 0.65 -4.05 2.40 -2.95 1.70 1.10 1.10 3.70 -0.90 3.70 -0.50 0 -1.15 -0.35 -1.50 -0.75z"/>
  <path d="M712 324.75 c-1.30 -1.60 0.65 -4.05 2.40 -2.95 1.70 1.10 1.10 3.70 -0.90 3.70 -0.50 0 -1.15 -0.35 -1.50 -0.75z"/>
  <path d="M832 324.75 c-1.30 -1.60 0.65 -4.05 2.40 -2.95 1.70 1.10 1.10 3.70 -0.90 3.70 -0.50 0 -1.15 -0.35 -1.50 -0.75z"/>
  <path d="M952 324.75 c-0.75 -0.90 -0.50 -2.25 0.60 -2.95 1.10 -0.70 1.80 -0.05 2.20 2.10 0.30 1.45 0.20 1.60 -0.95 1.60 -0.65 0 -1.50 -0.35 -1.85 -0.75z"/>
  <path d="M1192 324.75 c-1.30 -1.60 0.65 -4.05 2.40 -2.95 1.70 1.10 1.10 3.70 -0.90 3.70 -0.50 0 -1.15 -0.35 -1.50 -0.75z"/>
  <path d="M1432 324.75 c-1.30 -1.60 0.65 -4.05 2.40 -2.95 1.70 1.10 1.10 3.70 -0.90 3.70 -0.50 0 -1.15 -0.35 -1.50 -0.75z"/>
  <path d="M112 204.75 c-1.30 -1.60 0.65 -4.05 2.40 -2.95 1.70 1.10 1.10 3.70 -0.90 3.70 -0.50 0 -1.15 -0.35 -1.50 -0.75z"/>
  <path d="M352 204.75 c-1.30 -1.60 0.65 -4.05 2.40 -2.95 1.70 1.10 1.10 3.70 -0.90 3.70 -0.50 0 -1.15 -0.35 -1.50 -0.75z"/>
  <path d="M472 204.75 c-1.30 -1.60 0.65 -4.05 2.40 -2.95 1.70 1.10 1.10 3.70 -0.90 3.70 -0.50 0 -1.15 -0.35 -1.50 -0.75z"/>
  <path d="M592 204.75 c-1.30 -1.60 0.65 -4.05 2.40 -2.95 1.70 1.10 1.10 3.70 -0.90 3.70 -0.50 0 -1.15 -0.35 -1.50 -0.75z"/>
  <path d="M712 204.75 c-1.30 -1.60 0.65 -4.05 2.40 -2.95 1.70 1.10 1.10 3.70 -0.90 3.70 -0.50 0 -1.15 -0.35 -1.50 -0.75z"/>
  <path d="M832 204.75 c-1.30 -1.60 0.65 -4.05 2.40 -2.95 1.70 1.10 1.10 3.70 -0.90 3.70 -0.50 0 -1.15 -0.35 -1.50 -0.75z"/>
  <path d="M952 204.75 c-1.30 -1.60 0.65 -4.05 2.40 -2.95 1.70 1.10 1.10 3.70 -0.90 3.70 -0.50 0 -1.15 -0.35 -1.50 -0.75z"/>
  <path d="M1072 204.75 c-1.30 -1.60 0.65 -4.05 2.40 -2.95 1.70 1.10 1.10 3.70 -0.90 3.70 -0.50 0 -1.15 -0.35 -1.50 -0.75z"/>
  <path d="M1192 204.75 c-1.30 -1.60 0.65 -4.05 2.40 -2.95 1.70 1.10 1.10 3.70 -0.90 3.70 -0.50 0 -1.15 -0.35 -1.50 -0.75z"/>
  <path d="M1312 204.75 c-1.30 -1.60 0.65 -4.05 2.40 -2.95 1.70 1.10 1.10 3.70 -0.90 3.70 -0.50 0 -1.15 -0.35 -1.50 -0.75z"/>
  <path d="M1432 204.75 c-1.30 -1.60 0.65 -4.05 2.40 -2.95 1.70 1.10 1.10 3.70 -0.90 3.70 -0.50 0 -1.15 -0.35 -1.50 -0.75z"/>
  <path d="M112 84.75 c-0.75 -0.90 -0.50 -2.25 0.65 -2.95 1.70 -1.10 3.65 1.35 2.35 2.95 -0.80 0.95 -2.20 0.95 -3 0z"/>
  <path d="M232 84.75 c-0.75 -0.90 -0.50 -2.25 0.65 -2.95 1.70 -1.10 3.65 1.35 2.35 2.95 -0.80 0.95 -2.20 0.95 -3 0z"/>
  <path d="M352 84.75 c-0.75 -0.90 -0.50 -2.25 0.65 -2.95 1.70 -1.10 3.65 1.35 2.35 2.95 -0.80 0.95 -2.20 0.95 -3 0z"/>
  <path d="M472 84.75 c-1.30 -1.60 0.65 -4.05 2.40 -2.95 1.10 0.70 1.35 2.05 0.60 2.95 -0.80 0.95 -2.20 0.95 -3 0z"/>
  <path d="M592 84.75 c-0.75 -0.90 -0.50 -2.25 0.65 -2.95 1.70 -1.10 3.65 1.35 2.35 2.95 -0.80 0.95 -2.20 0.95 -3 0z"/>
  <path d="M712 84.75 c-1.30 -1.60 0.65 -4.05 2.40 -2.95 1.10 0.70 1.35 2.05 0.60 2.95 -0.80 0.95 -2.20 0.95 -3 0z"/>
  <path d="M832 84.75 c-1.30 -1.60 0.65 -4.05 2.40 -2.95 1.10 0.70 1.35 2.05 0.60 2.95 -0.80 0.95 -2.20 0.95 -3 0z"/>
  <path d="M952 84.75 c-0.75 -0.90 -0.50 -2.25 0.65 -2.95 1.70 -1.10 3.65 1.35 2.35 2.95 -0.80 0.95 -2.20 0.95 -3 0z"/>
  <path d="M1072 84.75 c-1.30 -1.60 0.65 -4.05 2.40 -2.95 1.10 0.70 1.35 2.05 0.60 2.95 -0.80 0.95 -2.20 0.95 -3 0z"/>
  <path d="M1192 84.75 c-0.75 -0.90 -0.50 -2.25 0.65 -2.95 1.70 -1.10 3.65 1.35 2.35 2.95 -0.80 0.95 -2.20 0.95 -3 0z"/>
  <path d="M1312 84.75 c-0.75 -0.90 -0.50 -2.25 0.65 -2.95 1.70 -1.10 3.65 1.35 2.35 2.95 -0.80 0.95 -2.20 0.95 -3 0z"/>
  <path d="M1432 84.75 c-0.75 -0.90 -0.50 -2.25 0.65 -2.95 1.70 -1.10 3.65 1.35 2.35 2.95 -0.80 0.95 -2.20 0.95 -3 0z"/>
 </g>
</svg>