<svg width="200" height="200" viewBox="0 0 200 200" fill="none" xmlns="http://www.w3.org/2000/svg">
  <rect width="200" height="200" rx="20" fill="#3498DB"/>
  <path d="M41.1033 127V73H65.1273V82.616H52.9873V94.568H63.6553V104.184H52.9873V117.384H65.1273V127H41.1033ZM79.7566 127.528C76.7167 127.528 74.0007 126.904 71.6087 125.656C69.2167 124.408 67.3367 122.584 65.9687 120.184C64.6007 117.784 63.9167 114.888 63.9167 111.496C63.9167 108.104 64.6007 105.208 65.9687 102.808C67.3367 100.408 69.2167 98.584 71.6087 97.336C74.0007 96.088 76.7167 95.464 79.7566 95.464C82.7966 95.464 85.5127 96.088 87.9047 97.336C90.2967 98.584 92.1767 100.408 93.5447 102.808C94.9127 105.208 95.5967 108.104 95.5967 111.496C95.5967 114.888 94.9127 117.784 93.5447 120.184C92.1767 122.584 90.2967 124.408 87.9047 125.656C85.5127 126.904 82.7966 127.528 79.7566 127.528ZM79.7566 118.936C81.4207 118.936 82.7007 118.296 83.5967 117.016C84.4927 115.736 84.9407 113.896 84.9407 111.496C84.9407 109.096 84.4927 107.256 83.5967 105.976C82.7007 104.696 81.4207 104.056 79.7566 104.056C78.0926 104.056 76.8127 104.696 75.9167 105.976C75.0207 107.256 74.5727 109.096 74.5727 111.496C74.5727 113.896 75.0207 115.736 75.9167 117.016C76.8127 118.296 78.0926 118.936 79.7566 118.936ZM102.937 127L92.281 95.992H102.889L108.329 117.24H108.761L114.249 95.992H124.857L114.153 127H102.937ZM142.455 127.528C139.415 127.528 136.699 126.904 134.307 125.656C131.915 124.408 130.035 122.584 128.667 120.184C127.299 117.784 126.615 114.888 126.615 111.496C126.615 108.104 127.299 105.208 128.667 102.808C130.035 100.408 131.915 98.584 134.307 97.336C136.699 96.088 139.415 95.464 142.455 95.464C145.495 95.464 148.211 96.088 150.603 97.336C152.995 98.584 154.875 100.408 156.243 102.808C157.611 105.208 158.295 108.104 158.295 111.496C158.295 114.888 157.611 117.784 156.243 120.184C154.875 122.584 152.995 124.408 150.603 125.656C148.211 126.904 145.495 127.528 142.455 127.528ZM142.455 118.936C144.119 118.936 145.399 118.296 146.295 117.016C147.191 115.736 147.639 113.896 147.639 111.496C147.639 109.096 147.191 107.256 146.295 105.976C145.399 104.696 144.119 104.056 142.455 104.056C140.791 104.056 139.511 104.696 138.615 105.976C137.719 107.256 137.271 109.096 137.271 111.496C137.271 113.896 137.719 115.736 138.615 117.016C139.511 118.296 140.791 118.936 142.455 118.936Z" fill="white"/>
  <path d="M100 40V60" stroke="white" stroke-width="10" stroke-linecap="round"/>
  <path d="M90 50H110" stroke="white" stroke-width="10" stroke-linecap="round"/>
  <path d="M75 70H125" stroke="white" stroke-width="5" stroke-linecap="round"/>
  <path d="M70 80H130" stroke="white" stroke-width="5" stroke-linecap="round"/>
  <circle cx="100" cy="90" r="10" stroke="white" stroke-width="5"/>
  <path d="M85 105L75 115" stroke="white" stroke-width="5" stroke-linecap="round"/>
  <path d="M115 105L125 115" stroke="white" stroke-width="5" stroke-linecap="round"/>
</svg> 