<?xml version="1.0" encoding="utf-8"?>
<!DOCTYPE svg PUBLIC "-//W3C//DTD SVG 1.0//EN" "http://www.w3.org/TR/2001/REC-SVG-20010904/DTD/svg10.dtd">
<svg width="300" height="80" viewBox="0 0 300 80" fill="none" xmlns="http://www.w3.org/2000/svg">
  <!-- H letter -->
  <path d="M30 15H45V35H65V15H80V65H65V45H45V65H30V15Z" fill="#366cbb"/>
  
  <!-- Word "OLOCAN" -->
  <path d="M100 15C93.3333 15 88.3333 17 85 21C81.6667 25 80 30 80 36C80 42 81.6667 47 85 51C88.3333 55 93.3333 57 100 57C106.667 57 111.667 55 115 51C118.333 47 120 42 120 36C120 30 118.333 25 115 21C111.667 17 106.667 15 100 15ZM100 25C102.667 25 104.667 26 106 28C107.333 30 108 32.6667 108 36C108 39.3333 107.333 42 106 44C104.667 46 102.667 47 100 47C97.3333 47 95.3333 46 94 44C92.6667 42 92 39.3333 92 36C92 32.6667 92.6667 30 94 28C95.3333 26 97.3333 25 100 25Z" fill="white"/>
  
  <path d="M127 15H140V55H170V65H127V15Z" fill="white"/>
  <path d="M177 15H191V35C191 38 191.333 40.3333 192 42C192.667 43.6667 193.667 44.6667 195 45C196.333 45.3333 198 45.5 200 45.5C202 45.5 203.667 45.3333 205 45C206.333 44.6667 207.333 43.6667 208 42C208.667 40.3333 209 38 209 35V15H222V35C222 43 219.833 48.6667 215.5 52C211.167 55.3333 205.667 57 199 57C192.333 57 186.833 55.3333 182.5 52C178.167 48.6667 176 43 176 35V15H177Z" fill="white"/>
  
  <path d="M230 15C234.75 15 238.75 15.9091 242 17.7273C245.25 19.5455 247.667 22.2727 249.25 25.9091C250.833 29.5455 251.625 33.9091 251.625 39C251.625 44.0909 250.833 48.4545 249.25 52.0909C247.667 55.7273 245.25 58.4545 242 60.2727C238.75 62.0909 234.75 63 230 63C225.25 63 221.25 62.0909 218 60.2727C214.75 58.4545 212.333 55.7273 210.75 52.0909C209.167 48.4545 208.375 44.0909 208.375 39C208.375 33.9091 209.167 29.5455 210.75 25.9091C212.333 22.2727 214.75 19.5455 218 17.7273C221.25 15.9091 225.25 15 230 15ZM230 25C228.083 25 226.5 25.9091 225.25 27.7273C224 29.5455 223.375 33.5455 223.375 39.7273C223.375 45.9091 224 50 225.25 52C226.5 54 228.083 55 230 55C231.917 55 233.5 54 234.75 52C236 50 236.625 45.9091 236.625 39.7273C236.625 33.5455 236 29.5455 234.75 27.7273C233.5 25.9091 231.917 25 230 25Z" fill="white"/>
  
  <path d="M257 15H271L284 44H284.5L297 15H311L291 65H277L257 15Z" fill="white"/>
  
  <!-- GAN -->
  <path d="M122 65L134 70L144 65L134 60L122 65Z" fill="#ac2317"/>
  <path d="M148 65L160 70L170 65L160 60L148 65Z" fill="#ac2317"/>
  <path d="M174 65L186 70L196 65L186 60L174 65Z" fill="#ac2317"/>
</svg>