<svg width="200" height="200" viewBox="0 0 200 200" fill="none" xmlns="http://www.w3.org/2000/svg">
  <rect width="200" height="200" rx="20" fill="#2C3E50"/>
  <path d="M39.6151 127V73H53.4431C58.3831 73 62.5951 73.912 66.0951 75.736C69.5951 77.56 72.2791 80.168 74.1511 83.56C76.0231 86.952 76.9591 90.968 76.9591 95.608C76.9591 100.248 76.0231 104.264 74.1511 107.656C72.2791 111.048 69.5951 113.656 66.0951 115.48C62.5951 117.304 58.3831 118.216 53.4431 118.216H51.4511V127H39.6151ZM53.0191 107.512C56.7711 107.512 59.6111 106.504 61.5391 104.488C63.4671 102.456 64.4311 99.512 64.4311 95.656C64.4311 91.8 63.4671 88.872 61.5391 86.872C59.6111 84.856 56.7711 83.848 53.0191 83.848H51.4511V107.512H53.0191ZM100.37 127.528C96.0661 127.528 92.3141 126.616 89.1141 124.792C85.9141 122.968 83.4341 120.408 81.6741 117.112C79.9141 113.816 79.0341 109.976 79.0341 105.592C79.0341 101.208 79.9141 97.368 81.6741 94.072C83.4341 90.776 85.9141 88.216 89.1141 86.392C92.3141 84.568 96.0661 83.656 100.37 83.656C104.674 83.656 108.426 84.568 111.626 86.392C114.826 88.216 117.306 90.776 119.066 94.072C120.826 97.368 121.706 101.208 121.706 105.592C121.706 109.976 120.826 113.816 119.066 117.112C117.306 120.408 114.826 122.968 111.626 124.792C108.426 126.616 104.674 127.528 100.37 127.528ZM100.37 117.592C102.994 117.592 105.026 116.6 106.466 114.616C107.906 112.632 108.626 109.592 108.626 105.496C108.626 101.4 107.906 98.376 106.466 96.424C105.026 94.456 102.994 93.472 100.37 93.472C97.7461 93.472 95.7141 94.456 94.2741 96.424C92.8341 98.376 92.1141 101.4 92.1141 105.496C92.1141 109.592 92.8341 112.632 94.2741 114.616C95.7141 116.6 97.7461 117.592 100.37 117.592ZM132.646 127V73H144.482V127H132.646Z" fill="white"/>
  <path d="M100 40L90 60H110L100 40Z" fill="white" stroke="white" stroke-width="2"/>
  <rect x="95" y="60" width="10" height="20" fill="white"/>
  <path d="M70 95C70 81.1929 81.1929 70 95 70H105C118.807 70 130 81.1929 130 95V95C130 108.807 118.807 120 105 120H95C81.1929 120 70 108.807 70 95V95Z" stroke="white" stroke-width="5"/>
  <path d="M80 95C80 86.7157 86.7157 80 95 80H105C113.284 80 120 86.7157 120 95V95C120 103.284 113.284 110 105 110H95C86.7157 110 80 103.284 80 95V95Z" stroke="white" stroke-width="5"/>
</svg> 