<svg width="200" height="200" viewBox="0 0 200 200" fill="none" xmlns="http://www.w3.org/2000/svg">
  <rect width="200" height="200" rx="20" fill="#E67E22"/>
  <path d="M39.3111 127V73H51.6271L62.4351 103.688H62.9311L73.7391 73H86.0551V127H74.9511V97.208H74.5991L64.7111 126.352H60.6551L50.7671 97.064H50.4151V127H39.3111ZM92.3493 127V87.808H103.781V127H92.3493ZM98.0773 84.536C96.1413 84.536 94.5173 83.936 93.2053 82.736C91.9093 81.52 91.2613 80.048 91.2613 78.32C91.2613 76.608 91.9093 75.152 93.2053 73.952C94.5173 72.736 96.1413 72.128 98.0773 72.128C100.013 72.128 101.621 72.736 102.901 73.952C104.197 75.152 104.845 76.608 104.845 78.32C104.845 80.048 104.197 81.52 102.901 82.736C101.621 83.936 100.013 84.536 98.0773 84.536ZM118.728 127V96.232H110.952V87.808H118.728V86.184C118.728 82.984 119.304 80.328 120.456 78.216C121.624 76.088 123.304 74.488 125.496 73.416C127.688 72.328 130.36 71.784 133.512 71.784C134.728 71.784 135.896 71.864 137.016 72.024C138.152 72.184 139.16 72.376 140.04 72.6L138.344 81.312C137.88 81.2 137.352 81.104 136.76 81.024C136.168 80.944 135.608 80.904 135.08 80.904C133.592 80.904 132.472 81.272 131.72 82.008C130.968 82.728 130.592 83.84 130.592 85.344V87.808H137.944V96.232H130.592V127H118.728Z" fill="white"/>
  <path d="M80 50C80 44.4772 84.4772 40 90 40H110C115.523 40 120 44.4772 120 50V50C120 55.5228 115.523 60 110 60H90C84.4772 60 80 55.5228 80 50V50Z" fill="white"/>
  <path d="M85 65C85 62.2386 87.2386 60 90 60H110C112.761 60 115 62.2386 115 65V65C115 67.7614 112.761 70 110 70H90C87.2386 70 85 67.7614 85 65V65Z" fill="white"/>
  <circle cx="90" cy="50" r="5" fill="#E67E22"/>
  <circle cx="110" cy="50" r="5" fill="#E67E22"/>
  <path d="M90 60C90 60 95 65 100 65C105 65 110 60 110 60" stroke="#E67E22" stroke-width="2"/>
</svg> 