<svg width="200" height="200" viewBox="0 0 200 200" fill="none" xmlns="http://www.w3.org/2000/svg">
  <rect width="200" height="200" rx="20" fill="#366CBB"/>
  <path d="M42.7271 127V73H66.5451V82.52H54.5631V94.904H65.5431V104.424H54.5631V127H42.7271ZM88.0785 127.648C84.2545 127.648 81.0945 126.776 78.5985 125.032C76.1025 123.288 74.2385 120.896 73.0065 117.856C71.7745 114.816 71.1585 111.344 71.1585 107.44C71.1585 103.472 71.7745 99.976 73.0065 96.952C74.2385 93.912 76.1025 91.52 78.5985 89.776C81.0945 88.032 84.2545 87.16 88.0785 87.16C91.9025 87.16 95.0625 88.032 97.5585 89.776C100.055 91.52 101.919 93.912 103.151 96.952C104.383 99.976 104.999 103.472 104.999 107.44C104.999 111.344 104.383 114.816 103.151 117.856C101.919 120.896 100.055 123.288 97.5585 125.032C95.0625 126.776 91.9025 127.648 88.0785 127.648ZM88.0785 117.76C89.9185 117.76 91.3025 116.896 92.2305 115.168C93.1585 113.44 93.6225 110.864 93.6225 107.44C93.6225 103.952 93.1585 101.352 92.2305 99.64C91.3025 97.912 89.9185 97.048 88.0785 97.048C86.2385 97.048 84.8545 97.912 83.9265 99.64C82.9985 101.352 82.5345 103.952 82.5345 107.44C82.5345 110.864 82.9985 113.44 83.9265 115.168C84.8545 116.896 86.2385 117.76 88.0785 117.76ZM116.789 127V87.808H128.053V95.072H128.341C128.981 92.608 129.957 90.728 131.269 89.432C132.581 88.12 134.157 87.464 135.997 87.464C136.557 87.464 137.133 87.528 137.725 87.656C138.317 87.768 138.829 87.928 139.261 88.136V98.024C138.717 97.752 138.029 97.536 137.197 97.376C136.365 97.216 135.629 97.136 134.989 97.136C133.661 97.136 132.485 97.456 131.461 98.096C130.437 98.72 129.637 99.6 129.061 100.736C128.501 101.872 128.221 103.224 128.221 104.792V127H116.789ZM147.358 127V87.808H158.79V127H147.358ZM153.086 84.536C151.15 84.536 149.526 83.936 148.214 82.736C146.918 81.52 146.27 80.048 146.27 78.32C146.27 76.608 146.918 75.152 148.214 73.952C149.526 72.736 151.15 72.128 153.086 72.128C155.022 72.128 156.63 72.736 157.91 73.952C159.206 75.152 159.854 76.608 159.854 78.32C159.854 80.048 159.206 81.52 157.91 82.736C156.63 83.936 155.022 84.536 153.086 84.536Z" fill="white"/>
  <path d="M90 40L110 60H70L90 40Z" fill="white"/>
  <path d="M90 75L70 55H110L90 75Z" fill="white"/>
</svg> 