<svg width="200" height="200" viewBox="0 0 200 200" fill="none" xmlns="http://www.w3.org/2000/svg">
  <rect width="200" height="200" rx="20" fill="#27AE60"/>
  <path d="M90 40L110 60H70L90 40Z" fill="white"/>
  <path d="M90 75L70 55H110L90 75Z" fill="white"/>
  <path d="M47.0127 127V73H59.0927V96.088H59.6607L74.1527 73H88.2127L72.6087 97.064L88.9247 127H74.6487L64.1767 107.368L59.0927 115.192V127H47.0127ZM102.16 127V87.808H113.592V127H102.16ZM107.888 84.536C105.952 84.536 104.328 83.936 103.016 82.736C101.72 81.52 101.072 80.048 101.072 78.32C101.072 76.608 101.72 75.152 103.016 73.952C104.328 72.736 105.952 72.128 107.888 72.128C109.824 72.128 111.432 72.736 112.712 73.952C114.008 75.152 114.656 76.608 114.656 78.32C114.656 80.048 114.008 81.52 112.712 82.736C111.432 83.936 109.824 84.536 107.888 84.536ZM138.443 127.648C134.619 127.648 131.459 126.776 128.963 125.032C126.467 123.288 124.603 120.896 123.371 117.856C122.139 114.816 121.523 111.344 121.523 107.44C121.523 103.472 122.139 99.976 123.371 96.952C124.603 93.912 126.467 91.52 128.963 89.776C131.459 88.032 134.619 87.16 138.443 87.16C142.267 87.16 145.427 88.032 147.923 89.776C150.419 91.52 152.283 93.912 153.515 96.952C154.747 99.976 155.363 103.472 155.363 107.44C155.363 111.344 154.747 114.816 153.515 117.856C152.283 120.896 150.419 123.288 147.923 125.032C145.427 126.776 142.267 127.648 138.443 127.648ZM138.443 117.76C140.283 117.76 141.667 116.896 142.595 115.168C143.523 113.44 143.987 110.864 143.987 107.44C143.987 103.952 143.523 101.352 142.595 99.64C141.667 97.912 140.283 97.048 138.443 97.048C136.603 97.048 135.219 97.912 134.291 99.64C133.363 101.352 132.899 103.952 132.899 107.44C132.899 110.864 133.363 113.44 134.291 115.168C135.219 116.896 136.603 117.76 138.443 117.76Z" fill="white"/>
  <circle cx="100" cy="95" r="30" stroke="white" stroke-width="6"/>
  <path d="M100 70V120" stroke="white" stroke-width="6"/>
  <path d="M80 80L120 110" stroke="white" stroke-width="6"/>
  <path d="M80 110L120 80" stroke="white" stroke-width="6"/>
</svg> 